<?xml version="1.0" encoding="UTF-8"?>
<!DOCTYPE svg PUBLIC "-//W3C//DTD SVG 1.1//EN" "http://www.w3.org/Graphics/SVG/1.1/DTD/svg11.dtd">
<svg xmlns="http://www.w3.org/2000/svg" version="1.1" width="600px" height="200px" style="shape-rendering:geometricPrecision; text-rendering:geometricPrecision; image-rendering:optimizeQuality; fill-rule:evenodd; clip-rule:evenodd" xmlns:xlink="http://www.w3.org/1999/xlink">
<g><path style="opacity:1" fill="#fdfdfd" d="M -0.5,-0.5 C 199.5,-0.5 399.5,-0.5 599.5,-0.5C 599.5,66.1667 599.5,132.833 599.5,199.5C 438.833,199.5 278.167,199.5 117.5,199.5C 117.783,198.711 118.283,198.044 119,197.5C 119.499,191.843 119.666,186.176 119.5,180.5C 126.204,179.996 132.87,179.163 139.5,178C 140.799,174.865 140.799,171.699 139.5,168.5C 151.301,167.608 155.801,161.275 153,149.5C 150.787,141.529 147.787,133.862 144,126.5C 142.403,123.781 140.237,121.614 137.5,120C 138.998,117.583 139.665,114.917 139.5,112C 138.108,103.227 137.274,94.3934 137,85.5C 136.261,81.9382 134.761,78.7716 132.5,76C 144.715,74.3227 156.715,71.4893 168.5,67.5C 167.671,72.453 167.337,77.453 167.5,82.5C 163.144,83.5107 159.144,85.3441 155.5,88C 150.607,93.6358 145.607,99.1358 140.5,104.5C 142.006,105.747 143.506,105.747 145,104.5C 150.206,94.2937 158.206,87.2937 169,83.5C 169.037,76.555 170.037,69.8883 172,63.5C 165.807,60.8602 159.307,59.3602 152.5,59C 141.5,58.3333 130.5,58.3333 119.5,59C 113.823,59.9603 108.323,61.4603 103,63.5C 102.167,62.5 101.333,61.5 100.5,60.5C 99.9276,62.0778 99.5943,63.5778 99.5,65C 74.2807,75.3905 60.9474,94.2238 59.5,121.5C 63.8809,120.94 67.0476,122.606 69,126.5C 75.6014,122.555 82.7681,120.222 90.5,119.5C 83.1029,118.429 76.1029,119.763 69.5,123.5C 68.0758,121.282 66.0758,119.782 63.5,119C 71.6324,111.046 79.2991,102.713 86.5,94C 88.7695,93.2419 90.9361,93.4086 93,94.5C 93.5472,101.177 93.3805,107.844 92.5,114.5C 92.6667,116.5 92.8333,118.5 93,120.5C 93.5,121 94,121.5 94.5,122C 87.6642,127.508 84.4975,134.675 85,143.5C 81.8064,146.674 80.973,150.341 82.5,154.5C 83.3333,152.5 84.1667,150.5 85,148.5C 85.498,151.482 85.6646,154.482 85.5,157.5C 85.1667,157.5 84.8333,157.5 84.5,157.5C 82.8466,156.201 81.3466,156.534 80,158.5C 74.9178,170.304 72.9178,182.638 74,195.5C 74.5,196 75,196.5 75.5,197C 84.6475,197.888 93.6475,198.721 102.5,199.5C 68.1667,199.5 33.8333,199.5 -0.5,199.5C -0.5,132.833 -0.5,66.1667 -0.5,-0.5 Z"/></g>
<g><path style="opacity:1" fill="#171717" d="M 534.5,1.5 C 535.833,1.5 537.167,1.5 538.5,1.5C 538.183,5.70159 538.517,9.70159 539.5,13.5C 540.296,29.1533 540.629,44.82 540.5,60.5C 537.167,60.8333 533.833,61.1667 530.5,61.5C 530.666,51.1613 530.5,40.828 530,30.5C 529.392,32.1545 528.892,33.8211 528.5,35.5C 528.197,40.8918 527.531,46.2251 526.5,51.5C 524.067,53.0538 521.4,53.7204 518.5,53.5C 518.354,49.4809 518.021,45.4809 517.5,41.5C 517.108,39.8211 516.608,38.1545 516,36.5C 515.5,45.8274 515.334,55.1607 515.5,64.5C 512.214,65.2071 508.881,65.5405 505.5,65.5C 505.548,47.1602 505.881,28.8269 506.5,10.5C 506.5,9.16667 506.5,7.83333 506.5,6.5C 510.754,5.35381 515.087,4.68714 519.5,4.5C 519.5,6.16667 519.5,7.83333 519.5,9.5C 520.158,16.2758 521.324,22.9425 523,29.5C 523.439,23.1023 524.273,16.7689 525.5,10.5C 526.092,7.87283 526.425,5.20616 526.5,2.5C 529.206,2.4249 531.873,2.09157 534.5,1.5 Z"/></g>
<g><path style="opacity:1" fill="#322826" d="M 60.5,7.5 C 62.288,7.21478 63.9547,7.54811 65.5,8.5C 56.3462,11.1202 47.0129,13.1202 37.5,14.5C 36.8333,14.1667 36.1667,13.8333 35.5,13.5C 43.7684,11.0157 52.1017,9.01575 60.5,7.5 Z"/></g>
<g><path style="opacity:1" fill="#342723" d="M 11.5,5.5 C 23.9641,5.45718 28.7975,11.4572 26,23.5C 22.1055,28.6885 16.9388,30.5218 10.5,29C 4.33299,25.1548 2.16632,19.6548 4,12.5C 5.74238,9.25432 8.24238,6.92098 11.5,5.5 Z"/></g>
<g><path style="opacity:1" fill="#eeaf64" d="M 12.5,7.5 C 22.0242,7.52237 25.8576,12.189 24,21.5C 19.6843,27.9969 14.351,28.9969 8,24.5C 3.59032,17.124 5.09032,11.4573 12.5,7.5 Z"/></g>
<g><path style="opacity:1" fill="#181717" d="M 501.5,17.5 C 501.667,31.8372 501.5,46.1705 501,60.5C 498.064,68.718 492.231,71.8846 483.5,70C 479.512,68.5524 477.012,65.7191 476,61.5C 475.5,48.5043 475.333,35.5043 475.5,22.5C 477.399,11.0383 484.066,6.87162 495.5,10C 498.568,11.6302 500.568,14.1302 501.5,17.5 Z"/></g>
<g><path style="opacity:1" fill="#cac9c9" d="M 519.5,9.5 C 521.48,10.8475 522.647,12.8475 523,15.5C 523.757,13.6854 524.59,12.0188 525.5,10.5C 524.273,16.7689 523.439,23.1023 523,29.5C 521.324,22.9425 520.158,16.2758 519.5,9.5 Z"/></g>
<g><path style="opacity:1" fill="#646464" d="M 534.5,1.5 C 535.919,0.548855 537.585,0.215521 539.5,0.5C 539.5,1.83333 539.5,3.16667 539.5,4.5C 539.5,7.5 539.5,10.5 539.5,13.5C 538.517,9.70159 538.183,5.70159 538.5,1.5C 537.167,1.5 535.833,1.5 534.5,1.5 Z"/></g>
<g><path style="opacity:1" fill="#171616" d="M 472.5,21.5 C 472.5,25.5 472.5,29.5 472.5,33.5C 468.802,33.5524 465.135,33.8857 461.5,34.5C 461.5,30.8333 461.5,27.1667 461.5,23.5C 460.5,23.5 459.5,23.5 458.5,23.5C 458.333,37.504 458.5,51.504 459,65.5C 459.667,66.8333 460.333,66.8333 461,65.5C 461.499,61.1794 461.666,56.8461 461.5,52.5C 465.154,52.0578 468.821,51.7244 472.5,51.5C 473.011,58.0423 472.178,64.3756 470,70.5C 464.972,75.5788 459.139,76.7454 452.5,74C 450.383,72.2691 448.883,70.1024 448,67.5C 447.5,54.1708 447.333,40.8375 447.5,27.5C 449.13,16.3899 455.463,12.2232 466.5,15C 468.856,16.914 470.856,19.0807 472.5,21.5 Z"/></g>
<g><path style="opacity:1" fill="#fd5554" d="M 421.5,31.5 C 420.512,36.6405 420.179,41.9738 420.5,47.5C 421.791,47.7373 422.791,47.404 423.5,46.5C 425.167,46.5 426.833,46.5 428.5,46.5C 428.5,49.5 428.5,52.5 428.5,55.5C 426.08,55.2924 423.747,55.6258 421.5,56.5C 420.505,61.7921 420.172,67.1254 420.5,72.5C 423.807,71.9492 427.14,71.6159 430.5,71.5C 430.5,74.5 430.5,77.5 430.5,80.5C 423.803,81.3138 417.137,82.3138 410.5,83.5C 410.5,63.8333 410.5,44.1667 410.5,24.5C 411.791,24.7373 412.791,24.404 413.5,23.5C 418.711,22.1849 424.044,21.5182 429.5,21.5C 429.5,24.5 429.5,27.5 429.5,30.5C 426.763,30.4013 424.096,30.7347 421.5,31.5 Z"/></g>
<g><path style="opacity:1" fill="#dddddd" d="M 487.5,18.5 C 488.496,18.4142 489.329,18.7476 490,19.5C 490.667,33.1667 490.667,46.8333 490,60.5C 488.605,61.8146 487.605,61.4812 487,59.5C 486.186,45.7584 486.353,32.0917 487.5,18.5 Z"/></g>
<g><path style="opacity:1" fill="#fe5757" d="M 406.5,32.5 C 406.5,36.1667 406.5,39.8333 406.5,43.5C 402.865,44.1143 399.198,44.4476 395.5,44.5C 395.817,41.4281 395.484,38.4281 394.5,35.5C 393.817,35.8627 393.15,36.1961 392.5,36.5C 392.19,35.2617 391.69,35.2617 391,36.5C 390.333,39.1667 390.333,41.8333 391,44.5C 394.422,49.6776 398.089,54.6776 402,59.5C 405.076,67.1225 405.242,74.7891 402.5,82.5C 402.624,83.1067 402.957,83.44 403.5,83.5C 402.025,85.4095 400.025,86.5762 397.5,87C 391.11,88.9422 386.277,87.1088 383,81.5C 381.844,77.5817 381.344,73.5817 381.5,69.5C 385.466,68.8379 389.466,68.5045 393.5,68.5C 393.18,71.8984 393.513,75.2317 394.5,78.5C 396.395,76.1329 396.895,73.4663 396,70.5C 391.667,63.8333 387.333,57.1667 383,50.5C 381.844,46.5817 381.344,42.5817 381.5,38.5C 383.696,28.0614 390.03,24.2281 400.5,27C 403.023,28.3597 405.023,30.193 406.5,32.5 Z"/></g>
<g><path style="opacity:1" fill="#322927" d="M 34.5,23.5 C 46.3572,26.5635 58.0239,30.2302 69.5,34.5C 68.8333,34.8333 68.1667,35.1667 67.5,35.5C 56.7669,32.3667 46.1003,29.0334 35.5,25.5C 34.7025,25.0431 34.3691,24.3764 34.5,23.5 Z"/></g>
<g><path style="opacity:1" fill="#fe5757" d="M 374.5,33.5 C 374.062,33.4346 373.728,33.6012 373.5,34C 375.774,36.3443 376.941,39.1776 377,42.5C 377.402,57.3644 377.569,72.0311 377.5,86.5C 372.828,92.1485 366.828,93.9819 359.5,92C 356.533,89.8995 354.7,87.0662 354,83.5C 353.5,70.8377 353.333,58.1711 353.5,45.5C 353.827,36.5068 358.493,31.8402 367.5,31.5C 370.205,31.3161 372.538,31.9827 374.5,33.5 Z"/></g>
<g><path style="opacity:1" fill="#3e3433" d="M 20.5,35.5 C 21.7899,36.0577 22.6232,37.0577 23,38.5C 25.1813,47.559 27.5146,56.559 30,65.5C 30.1435,71.9612 29.1435,71.9612 27,65.5C 24.1961,55.6201 22.0295,45.6201 20.5,35.5 Z"/></g>
<g><path style="opacity:1" fill="#392f2d" d="M 8.5,36.5 C 9.79426,38.0478 10.4609,40.0478 10.5,42.5C 9.80894,48.8165 9.4756,55.1499 9.5,61.5C 8.5,61.5 7.5,61.5 6.5,61.5C 7.28687,53.1776 7.95354,44.8443 8.5,36.5 Z"/></g>
<g><path style="opacity:1" fill="#fe5554" d="M 349.5,45.5 C 348.761,45.369 348.094,45.5357 347.5,46C 349.431,54.5376 348.431,62.7043 344.5,70.5C 345.554,77.2695 347.054,83.9362 349,90.5C 349.494,88.8659 349.66,87.1992 349.5,85.5C 350.999,88.342 351.333,91.342 350.5,94.5C 347.243,95.5514 343.91,96.2181 340.5,96.5C 339.5,91.1667 338.5,85.8333 337.5,80.5C 337.108,78.8211 336.608,77.1545 336,75.5C 335.5,82.8258 335.334,90.1591 335.5,97.5C 333.139,97.6741 330.806,98.0074 328.5,98.5C 327.5,98.5 326.5,98.5 325.5,98.5C 325.5,78.8333 325.5,59.1667 325.5,39.5C 331.058,37.8109 336.725,37.3109 342.5,38C 346.321,39.1617 348.654,41.6617 349.5,45.5 Z"/></g>
<g><path style="opacity:1" fill="#382f2d" d="M 29.5,31.5 C 38.1616,39.3285 46.3283,47.6618 54,56.5C 54.6877,57.3317 54.521,57.9984 53.5,58.5C 44.8317,50.3317 36.4984,41.8317 28.5,33C 29.056,32.6174 29.3893,32.1174 29.5,31.5 Z"/></g>
<g><path style="opacity:1" fill="#f73736" d="M 374.5,33.5 C 376.587,34.5846 377.92,36.2512 378.5,38.5C 379.649,53.0921 379.815,67.7588 379,82.5C 378.59,83.9007 378.09,85.234 377.5,86.5C 377.569,72.0311 377.402,57.3644 377,42.5C 376.941,39.1776 375.774,36.3443 373.5,34C 373.728,33.6012 374.062,33.4346 374.5,33.5 Z"/></g>
<g><path style="opacity:1" fill="#f3b3b2" d="M 421.5,31.5 C 420.892,36.9443 421.558,41.9443 423.5,46.5C 422.791,47.404 421.791,47.7373 420.5,47.5C 420.179,41.9738 420.512,36.6405 421.5,31.5 Z"/></g>
<g><path style="opacity:1" fill="#fe5958" d="M 321.5,48.5 C 321.5,52.1667 321.5,55.8333 321.5,59.5C 317.846,59.9422 314.179,60.2756 310.5,60.5C 310.817,57.4281 310.484,54.4281 309.5,51.5C 308.817,51.8627 308.15,52.1961 307.5,52.5C 307.44,51.9569 307.107,51.6236 306.5,51.5C 305.345,54.4459 305.179,57.4459 306,60.5C 310.58,66.6598 314.914,72.9931 319,79.5C 319.667,84.5 319.667,89.5 319,94.5C 318.654,96.8477 317.487,98.6811 315.5,100C 315.728,100.399 316.062,100.565 316.5,100.5C 301.784,105.797 295.451,100.63 297.5,85C 301.086,83.8924 304.753,83.3924 308.5,83.5C 308.18,86.8984 308.513,90.2317 309.5,93.5C 310.657,90.2156 310.824,86.8823 310,83.5C 305.611,78.1107 301.611,72.444 298,66.5C 296.985,62.5598 296.485,58.5598 296.5,54.5C 296.687,47.813 300.021,43.6463 306.5,42C 313.225,40.3657 318.225,42.5324 321.5,48.5 Z"/></g>
<g><path style="opacity:1" fill="#f63131" d="M 365.5,40.5 C 364.167,54.8333 364.167,69.1667 365.5,83.5C 364.671,84.3324 363.838,83.999 363,82.5C 362.333,68.8333 362.333,55.1667 363,41.5C 363.838,40.001 364.671,39.6676 365.5,40.5 Z"/></g>
<g><path style="opacity:1" fill="#f4edec" d="M 409.5,28.5 C 409.5,45.5 409.5,62.5 409.5,79.5C 407.919,81.6737 406.419,84.0071 405,86.5C 403.89,88.0368 402.39,88.7035 400.5,88.5C 400.64,90.1238 399.973,91.2904 398.5,92C 391.345,93.8337 385.845,91.667 382,85.5C 378.12,95.3639 370.953,99.1973 360.5,97C 358.04,95.5422 355.873,93.7089 354,91.5C 353.941,94.8224 352.774,97.6557 350.5,100C 346.623,100.729 342.789,100.562 339,99.5C 334.067,104.348 328.901,104.682 323.5,100.5C 314.856,110.48 306.022,110.814 297,101.5C 297.122,107.709 294.122,111.043 288,111.5C 285.516,111.174 283.349,110.174 281.5,108.5C 272.775,117.71 264.108,117.71 255.5,108.5C 253.468,111.368 251.635,114.368 250,117.5C 242.188,122.188 235.188,121.188 229,114.5C 227.761,123.062 223.094,125.729 215,122.5C 211.072,125.881 206.572,127.048 201.5,126C 199.963,124.89 199.297,123.39 199.5,121.5C 199.833,121.5 200.167,121.5 200.5,121.5C 203.279,121.721 205.946,121.388 208.5,120.5C 209.5,120.5 210.5,120.5 211.5,120.5C 210.764,101.837 210.098,83.1699 209.5,64.5C 210.79,65.0577 211.623,66.0577 212,67.5C 212.333,71.1667 212.667,74.8333 213,78.5C 213.174,73.6486 213.674,68.9819 214.5,64.5C 214.5,66.5 214.5,68.5 214.5,70.5C 214.5,86.8333 214.5,103.167 214.5,119.5C 216.415,119.784 218.081,119.451 219.5,118.5C 220.959,118.567 222.292,118.234 223.5,117.5C 225.488,98.1951 226.154,78.5284 225.5,58.5C 226.321,61.6414 226.821,64.9748 227,68.5C 227.278,67.5842 227.778,66.9175 228.5,66.5C 228.305,70.9152 228.805,75.2486 230,79.5C 233.754,85.3421 237.754,91.0087 242,96.5C 242.824,99.8823 242.657,103.216 241.5,106.5C 240.513,103.232 240.18,99.8984 240.5,96.5C 236.76,96.2408 233.094,96.5741 229.5,97.5C 227.544,113.706 234.21,118.873 249.5,113C 250.883,111.729 251.883,110.229 252.5,108.5C 253.11,107.609 253.443,106.609 253.5,105.5C 254.167,103.833 254.833,102.167 255.5,100.5C 257.303,109.736 262.637,112.736 271.5,109.5C 275.02,108.817 277.52,106.817 279,103.5C 281.397,96.2026 280.731,89.2026 277,82.5C 273.667,77.8333 270.333,73.1667 267,68.5C 265.384,65.1763 265.217,61.843 266.5,58.5C 268.388,60.9878 269.055,63.9878 268.5,67.5C 272.215,67.577 275.881,67.2436 279.5,66.5C 279.5,62.8333 279.5,59.1667 279.5,55.5C 280.117,55.6107 280.617,55.944 281,56.5C 281.406,53.2578 282.239,50.2578 283.5,47.5C 283.5,67.1667 283.5,86.8333 283.5,106.5C 286.206,106.425 288.873,106.092 291.5,105.5C 292.167,105.5 292.833,105.5 293.5,105.5C 294.497,88.3414 294.83,71.008 294.5,53.5C 295.167,53.8333 295.833,54.1667 296.5,54.5C 296.485,58.5598 296.985,62.5598 298,66.5C 301.611,72.444 305.611,78.1107 310,83.5C 310.824,86.8823 310.657,90.2156 309.5,93.5C 308.513,90.2317 308.18,86.8984 308.5,83.5C 304.753,83.3924 301.086,83.8924 297.5,85C 295.451,100.63 301.784,105.797 316.5,100.5C 318.504,99.3272 320.004,97.6605 321,95.5C 323.169,89.0264 322.836,82.693 320,76.5C 315.611,71.1107 311.611,65.444 308,59.5C 307.503,57.1902 307.337,54.8568 307.5,52.5C 308.15,52.1961 308.817,51.8627 309.5,51.5C 310.484,54.4281 310.817,57.4281 310.5,60.5C 314.179,60.2756 317.846,59.9422 321.5,59.5C 321.5,55.8333 321.5,52.1667 321.5,48.5C 322.117,48.6107 322.617,48.944 323,49.5C 323.191,47.2922 323.691,45.2922 324.5,43.5C 324.5,62.1667 324.5,80.8333 324.5,99.5C 326.099,99.7678 327.432,99.4345 328.5,98.5C 330.806,98.0074 333.139,97.6741 335.5,97.5C 336.167,91.8333 336.833,86.1667 337.5,80.5C 338.5,85.8333 339.5,91.1667 340.5,96.5C 343.91,96.2181 347.243,95.5514 350.5,94.5C 351.333,91.342 350.999,88.342 349.5,85.5C 348.877,80.5962 347.877,75.7629 346.5,71C 350.498,62.8908 351.498,54.3908 349.5,45.5C 350.964,46.4054 352.298,46.4054 353.5,45.5C 353.333,58.1711 353.5,70.8377 354,83.5C 354.7,87.0662 356.533,89.8995 359.5,92C 366.828,93.9819 372.828,92.1485 377.5,86.5C 378.09,85.234 378.59,83.9007 379,82.5C 379.815,67.7588 379.649,53.0921 378.5,38.5C 379.5,38.5 380.5,38.5 381.5,38.5C 381.344,42.5817 381.844,46.5817 383,50.5C 387.333,57.1667 391.667,63.8333 396,70.5C 396.895,73.4663 396.395,76.1329 394.5,78.5C 393.513,75.2317 393.18,71.8984 393.5,68.5C 389.466,68.5045 385.466,68.8379 381.5,69.5C 381.344,73.5817 381.844,77.5817 383,81.5C 386.277,87.1088 391.11,88.9422 397.5,87C 400.025,86.5762 402.025,85.4095 403.5,83.5C 408.636,75.7277 408.803,67.7277 404,59.5C 400.333,54.5 396.667,49.5 393,44.5C 392.503,41.854 392.336,39.1873 392.5,36.5C 393.15,36.1961 393.817,35.8627 394.5,35.5C 395.484,38.4281 395.817,41.4281 395.5,44.5C 399.198,44.4476 402.865,44.1143 406.5,43.5C 406.5,39.8333 406.5,36.1667 406.5,32.5C 407.117,32.6107 407.617,32.944 408,33.5C 408.198,31.6183 408.698,29.9516 409.5,28.5 Z"/></g>
<g><path style="opacity:1" fill="#fe5757" d="M 288.5,46.5 C 289.5,46.5 290.5,46.5 291.5,46.5C 291.5,66.1667 291.5,85.8333 291.5,105.5C 288.873,106.092 286.206,106.425 283.5,106.5C 283.5,86.8333 283.5,67.1667 283.5,47.5C 284.919,46.5489 286.585,46.2155 288.5,46.5 Z"/></g>
<g><path style="opacity:1" fill="#f4e5e4" d="M 365.5,40.5 C 366.496,40.4142 367.329,40.7476 368,41.5C 368.667,55.1667 368.667,68.8333 368,82.5C 367.329,83.2524 366.496,83.5858 365.5,83.5C 364.167,69.1667 364.167,54.8333 365.5,40.5 Z"/></g>
<g><path style="opacity:1" fill="#fe5756" d="M 279.5,55.5 C 279.5,59.1667 279.5,62.8333 279.5,66.5C 275.881,67.2436 272.215,67.577 268.5,67.5C 269.055,63.9878 268.388,60.9878 266.5,58.5C 265.504,58.4142 264.671,58.7476 264,59.5C 263.333,62.1667 263.333,64.8333 264,67.5C 268.333,73.8333 272.667,80.1667 277,86.5C 277.667,91.8333 277.667,97.1667 277,102.5C 276.033,105.621 274.2,107.954 271.5,109.5C 262.637,112.736 257.303,109.736 255.5,100.5C 255.5,97.8333 255.5,95.1667 255.5,92.5C 259.099,91.6561 262.766,91.3227 266.5,91.5C 266.18,94.8984 266.513,98.2317 267.5,101.5C 269.395,99.1329 269.895,96.4663 269,93.5C 265.724,87.8918 262.057,82.5585 258,77.5C 255.885,73.4288 254.719,69.0955 254.5,64.5C 255.179,52.4768 261.512,47.6435 273.5,50C 276.023,51.3597 278.023,53.193 279.5,55.5 Z"/></g>
<g><path style="opacity:1" fill="#f3d6d5" d="M 335.5,46.5 C 337.411,46.5743 338.578,47.5743 339,49.5C 339.667,53.5 339.667,57.5 339,61.5C 338.632,62.91 337.799,63.91 336.5,64.5C 335.504,58.5368 335.171,52.5368 335.5,46.5 Z"/></g>
<g><path style="opacity:1" fill="#fe5857" d="M 253.5,64.5 C 253.5,66.8333 253.5,69.1667 253.5,71.5C 249.865,72.1143 246.198,72.4476 242.5,72.5C 242.817,69.4281 242.484,66.4281 241.5,63.5C 240.817,63.8627 240.15,64.1961 239.5,64.5C 239.19,63.2617 238.69,63.2617 238,64.5C 237.333,67.1667 237.333,69.8333 238,72.5C 242,78.5 246,84.5 250,90.5C 251.031,96.6021 251.864,102.602 252.5,108.5C 251.883,110.229 250.883,111.729 249.5,113C 234.21,118.873 227.544,113.706 229.5,97.5C 233.094,96.5741 236.76,96.2408 240.5,96.5C 240.18,99.8984 240.513,103.232 241.5,106.5C 242.657,103.216 242.824,99.8823 242,96.5C 237.754,91.0087 233.754,85.3421 230,79.5C 228.805,75.2486 228.305,70.9152 228.5,66.5C 231.315,55.092 238.315,51.592 249.5,56C 251.782,58.3974 253.116,61.2307 253.5,64.5 Z"/></g>
<g><path style="opacity:1" fill="#f9403d" d="M 392.5,36.5 C 392.336,39.1873 392.503,41.854 393,44.5C 396.667,49.5 400.333,54.5 404,59.5C 408.803,67.7277 408.636,75.7277 403.5,83.5C 402.957,83.44 402.624,83.1067 402.5,82.5C 405.242,74.7891 405.076,67.1225 402,59.5C 398.089,54.6776 394.422,49.6776 391,44.5C 390.333,41.8333 390.333,39.1667 391,36.5C 391.69,35.2617 392.19,35.2617 392.5,36.5 Z"/></g>
<g><path style="opacity:1" fill="#efefef" d="M 539.5,4.5 C 540.222,4.91753 540.722,5.5842 541,6.5C 542.215,25.4883 542.549,44.4883 542,63.5C 533.957,68.8814 529.457,66.8814 528.5,57.5C 525.421,57.2601 522.421,57.5934 519.5,58.5C 520.254,68.2516 515.92,72.0849 506.5,70C 505.213,68.5905 504.046,67.0905 503,65.5C 498.39,74.5954 491.223,77.4287 481.5,74C 479.71,71.5087 477.543,69.342 475,67.5C 472,77.9179 465.167,82.0845 454.5,80C 450.51,78.0096 448.01,74.8429 447,70.5C 446.173,55.9941 446.339,41.6607 447.5,27.5C 447.333,40.8375 447.5,54.1708 448,67.5C 448.883,70.1024 450.383,72.2691 452.5,74C 459.139,76.7454 464.972,75.5788 470,70.5C 472.178,64.3756 473.011,58.0423 472.5,51.5C 468.821,51.7244 465.154,52.0578 461.5,52.5C 461.666,56.8461 461.499,61.1794 461,65.5C 460.333,66.8333 459.667,66.8333 459,65.5C 458.5,51.504 458.333,37.504 458.5,23.5C 459.5,23.5 460.5,23.5 461.5,23.5C 461.5,27.1667 461.5,30.8333 461.5,34.5C 465.135,33.8857 468.802,33.5524 472.5,33.5C 472.5,29.5 472.5,25.5 472.5,21.5C 473.222,21.9175 473.722,22.5842 474,23.5C 474.383,22.944 474.883,22.6107 475.5,22.5C 475.333,35.5043 475.5,48.5043 476,61.5C 477.012,65.7191 479.512,68.5524 483.5,70C 492.231,71.8846 498.064,68.718 501,60.5C 501.5,46.1705 501.667,31.8372 501.5,17.5C 502.793,18.842 503.626,20.5087 504,22.5C 504.333,22.1667 504.667,21.8333 505,21.5C 505.177,17.6437 505.677,13.977 506.5,10.5C 505.881,28.8269 505.548,47.1602 505.5,65.5C 508.881,65.5405 512.214,65.2071 515.5,64.5C 516.167,56.8333 516.833,49.1667 517.5,41.5C 518.021,45.4809 518.354,49.4809 518.5,53.5C 521.4,53.7204 524.067,53.0538 526.5,51.5C 527.531,46.2251 528.197,40.8918 528.5,35.5C 529.167,44.1667 529.833,52.8333 530.5,61.5C 533.833,61.1667 537.167,60.8333 540.5,60.5C 540.629,44.82 540.296,29.1533 539.5,13.5C 539.5,10.5 539.5,7.5 539.5,4.5 Z"/></g>
<g><path style="opacity:1" fill="#515050" d="M 530.5,61.5 C 529.833,52.8333 529.167,44.1667 528.5,35.5C 528.892,33.8211 529.392,32.1545 530,30.5C 530.5,40.828 530.666,51.1613 530.5,61.5 Z"/></g>
<g><path style="opacity:1" fill="#555555" d="M 517.5,41.5 C 516.833,49.1667 516.167,56.8333 515.5,64.5C 515.334,55.1607 515.5,45.8274 516,36.5C 516.608,38.1545 517.108,39.8211 517.5,41.5 Z"/></g>
<g><path style="opacity:1" fill="#fb8d8c" d="M 413.5,23.5 C 412.791,24.404 411.791,24.7373 410.5,24.5C 410.5,44.1667 410.5,63.8333 410.5,83.5C 409.566,82.4324 409.232,81.099 409.5,79.5C 409.5,62.5 409.5,45.5 409.5,28.5C 409.5,26.8333 409.5,25.1667 409.5,23.5C 410.833,23.5 412.167,23.5 413.5,23.5 Z"/></g>
<g><path style="opacity:1" fill="#fe5757" d="M 223.5,58.5 C 223.5,78.1667 223.5,97.8333 223.5,117.5C 222.292,118.234 220.959,118.567 219.5,118.5C 218.167,118.5 216.833,118.5 215.5,118.5C 215.83,102.325 215.496,86.3246 214.5,70.5C 214.5,68.5 214.5,66.5 214.5,64.5C 214.5,62.8333 214.5,61.1667 214.5,59.5C 217.455,58.8413 220.455,58.5079 223.5,58.5 Z"/></g>
<g><path style="opacity:1" fill="#f83c3b" d="M 291.5,46.5 C 293.488,65.8049 294.154,85.4716 293.5,105.5C 292.833,105.5 292.167,105.5 291.5,105.5C 291.5,85.8333 291.5,66.1667 291.5,46.5 Z"/></g>
<g><path style="opacity:1" fill="#fe5857" d="M 207.5,61.5 C 208.292,81.1561 208.626,100.823 208.5,120.5C 205.946,121.388 203.279,121.721 200.5,121.5C 200.827,111.985 200.494,102.652 199.5,93.5C 200.615,88.2501 200.781,82.9167 200,77.5C 198.547,87.8398 197.047,98.1732 195.5,108.5C 195.511,110.045 195.844,111.378 196.5,112.5C 194.052,113.473 191.385,113.806 188.5,113.5C 188.556,108.269 187.889,103.269 186.5,98.5C 186.608,94.753 186.108,91.0863 185,87.5C 184.833,93.6667 184.667,99.8333 184.5,106C 184.504,112.538 185.17,118.705 186.5,124.5C 185.081,125.451 183.415,125.784 181.5,125.5C 179.833,125.5 178.167,125.5 176.5,125.5C 176.5,116.833 176.5,108.167 176.5,99.5C 176.5,88.5 176.5,77.5 176.5,66.5C 180.785,65.7051 185.119,65.3718 189.5,65.5C 190.664,73.1536 191.831,80.8203 193,88.5C 194.495,79.8675 195.662,71.2009 196.5,62.5C 200.154,62.0578 203.821,61.7244 207.5,61.5 Z"/></g>
<g><path style="opacity:1" fill="#f84440" d="M 207.5,61.5 C 209.048,61.8212 209.715,62.8212 209.5,64.5C 210.098,83.1699 210.764,101.837 211.5,120.5C 210.5,120.5 209.5,120.5 208.5,120.5C 208.626,100.823 208.292,81.1561 207.5,61.5 Z"/></g>
<g><path style="opacity:1" fill="#1d1d1d" d="M 435.5,68.5 C 443.299,68.0963 445.633,71.263 442.5,78C 435.143,81.56 431.977,79.3933 433,71.5C 434.045,70.6266 434.878,69.6266 435.5,68.5 Z"/></g>
<g><path style="opacity:1" fill="#f7443f" d="M 349.5,45.5 C 351.498,54.3908 350.498,62.8908 346.5,71C 347.877,75.7629 348.877,80.5962 349.5,85.5C 349.66,87.1992 349.494,88.8659 349,90.5C 347.054,83.9362 345.554,77.2695 344.5,70.5C 348.431,62.7043 349.431,54.5376 347.5,46C 348.094,45.5357 348.761,45.369 349.5,45.5 Z"/></g>
<g><path style="opacity:1" fill="#f6eded" d="M 253.5,64.5 C 253.833,64.5 254.167,64.5 254.5,64.5C 254.719,69.0955 255.885,73.4288 258,77.5C 262.057,82.5585 265.724,87.8918 269,93.5C 269.895,96.4663 269.395,99.1329 267.5,101.5C 266.513,98.2317 266.18,94.8984 266.5,91.5C 262.766,91.3227 259.099,91.6561 255.5,92.5C 254.833,93.5 254.167,94.5 253.5,95.5C 253.54,92.5755 252.707,89.9088 251,87.5C 247.089,82.6776 243.422,77.6776 240,72.5C 239.503,69.854 239.336,67.1873 239.5,64.5C 240.15,64.1961 240.817,63.8627 241.5,63.5C 242.484,66.4281 242.817,69.4281 242.5,72.5C 246.198,72.4476 249.865,72.1143 253.5,71.5C 253.5,69.1667 253.5,66.8333 253.5,64.5 Z"/></g>
<g><path style="opacity:1" fill="#f93d3b" d="M 239.5,64.5 C 239.336,67.1873 239.503,69.854 240,72.5C 243.422,77.6776 247.089,82.6776 251,87.5C 252.707,89.9088 253.54,92.5755 253.5,95.5C 253.5,98.8333 253.5,102.167 253.5,105.5C 253.443,106.609 253.11,107.609 252.5,108.5C 251.864,102.602 251.031,96.6021 250,90.5C 246,84.5 242,78.5 238,72.5C 237.333,69.8333 237.333,67.1667 238,64.5C 238.69,63.2617 239.19,63.2617 239.5,64.5 Z"/></g>
<g><path style="opacity:1" fill="#fb9090" d="M 325.5,39.5 C 325.5,59.1667 325.5,78.8333 325.5,98.5C 326.5,98.5 327.5,98.5 328.5,98.5C 327.432,99.4345 326.099,99.7678 324.5,99.5C 324.5,80.8333 324.5,62.1667 324.5,43.5C 324.232,41.901 324.566,40.5676 325.5,39.5 Z"/></g>
<g><path style="opacity:1" fill="#fe5c5b" d="M 539.5,78.5 C 538.806,90.1537 538.473,101.82 538.5,113.5C 537.081,114.451 535.415,114.784 533.5,114.5C 532.925,102.508 532.591,90.5083 532.5,78.5C 534.833,78.5 537.167,78.5 539.5,78.5 Z"/></g>
<g><path style="opacity:1" fill="#f6908f" d="M 288.5,46.5 C 290.265,45.5386 292.265,45.2053 294.5,45.5C 294.5,48.1667 294.5,50.8333 294.5,53.5C 294.83,71.008 294.497,88.3414 293.5,105.5C 294.154,85.4716 293.488,65.8049 291.5,46.5C 290.5,46.5 289.5,46.5 288.5,46.5 Z"/></g>
<g><path style="opacity:1" fill="#f8423e" d="M 539.5,78.5 C 540.824,82.107 541.491,86.107 541.5,90.5C 541.347,96.3444 541.013,102.178 540.5,108C 540.453,110.295 539.787,112.129 538.5,113.5C 538.473,101.82 538.806,90.1537 539.5,78.5 Z"/></g>
<g><path style="opacity:1" fill="#fd5655" d="M 509.5,130.5 C 509.5,116.167 509.5,101.833 509.5,87.5C 509.286,85.8561 509.62,84.3561 510.5,83C 529.221,79.0683 534.887,86.0683 527.5,104C 535.571,122.241 529.571,131.074 509.5,130.5 Z"/></g>
<g><path style="opacity:1" fill="#fe5a59" d="M 501.5,86.5 C 502.801,87.8816 503.634,89.5483 504,91.5C 504.667,103.167 504.667,114.833 504,126.5C 503.654,128.848 502.487,130.681 500.5,132C 500.728,132.399 501.062,132.565 501.5,132.5C 494.578,136.342 489.411,134.676 486,127.5C 485.501,123.848 485.335,120.182 485.5,116.5C 485.059,107.724 485.559,99.0578 487,90.5C 490.986,85.6818 495.819,84.3485 501.5,86.5 Z"/></g>
<g><path style="opacity:1" fill="#f73636" d="M 223.5,58.5 C 224.167,58.5 224.833,58.5 225.5,58.5C 226.154,78.5284 225.488,98.1951 223.5,117.5C 223.5,97.8333 223.5,78.1667 223.5,58.5 Z"/></g>
<g><path style="opacity:1" fill="#fc7e7e" d="M 214.5,70.5 C 215.496,86.3246 215.83,102.325 215.5,118.5C 216.833,118.5 218.167,118.5 219.5,118.5C 218.081,119.451 216.415,119.784 214.5,119.5C 214.5,103.167 214.5,86.8333 214.5,70.5 Z"/></g>
<g><path style="opacity:1" fill="#fd5553" d="M 477.5,89.5 C 479.167,89.5 480.833,89.5 482.5,89.5C 482.5,91.5 482.5,93.5 482.5,95.5C 479.373,96.5808 476.04,97.2474 472.5,97.5C 472.5,100.833 472.5,104.167 472.5,107.5C 479.401,106.743 483.401,109.743 484.5,116.5C 487.054,132.946 480.054,140.28 463.5,138.5C 463.5,122.833 463.5,107.167 463.5,91.5C 468.107,90.4456 472.773,89.779 477.5,89.5 Z"/></g>
<g><path style="opacity:1" fill="#f28c8c" d="M 337.5,80.5 C 336.833,86.1667 336.167,91.8333 335.5,97.5C 335.334,90.1591 335.5,82.8258 336,75.5C 336.608,77.1545 337.108,78.8211 337.5,80.5 Z"/></g>
<g><path style="opacity:1" fill="#faaead" d="M 477.5,89.5 C 479.265,88.5386 481.265,88.2053 483.5,88.5C 483.802,91.0593 483.468,93.3926 482.5,95.5C 482.5,93.5 482.5,91.5 482.5,89.5C 480.833,89.5 479.167,89.5 477.5,89.5 Z"/></g>
<g><path style="opacity:1" fill="#f7433f" d="M 307.5,52.5 C 307.337,54.8568 307.503,57.1902 308,59.5C 311.611,65.444 315.611,71.1107 320,76.5C 322.836,82.693 323.169,89.0264 321,95.5C 320.004,97.6605 318.504,99.3272 316.5,100.5C 316.062,100.565 315.728,100.399 315.5,100C 317.487,98.6811 318.654,96.8477 319,94.5C 319.667,89.5 319.667,84.5 319,79.5C 314.914,72.9931 310.58,66.6598 306,60.5C 305.179,57.4459 305.345,54.4459 306.5,51.5C 307.107,51.6236 307.44,51.9569 307.5,52.5 Z"/></g>
<g><path style="opacity:1" fill="#fe5756" d="M 458.5,96.5 C 458.596,109.281 458.429,122.281 458,135.5C 456.702,136.946 456.535,138.279 457.5,139.5C 455.393,141.652 452.726,142.652 449.5,142.5C 444.956,142.819 442.123,140.819 441,136.5C 440.825,131.981 440.325,127.647 439.5,123.5C 438.18,126.428 437.514,129.761 437.5,133.5C 437.514,137.239 438.18,140.572 439.5,143.5C 438.081,144.451 436.415,144.784 434.5,144.5C 433.167,144.5 431.833,144.5 430.5,144.5C 430.5,128.833 430.5,113.167 430.5,97.5C 433.455,96.8413 436.455,96.5079 439.5,96.5C 439.334,103.175 439.5,109.842 440,116.5C 440.083,110.058 440.749,103.725 442,97.5C 445.743,93.7406 450.243,92.5739 455.5,94C 456.942,94.3768 457.942,95.2101 458.5,96.5 Z"/></g>
<g><path style="opacity:1" fill="#f43636" d="M 199.5,93.5 C 199.425,96.2062 199.092,98.8728 198.5,101.5C 198.069,105.337 197.402,109.003 196.5,112.5C 195.844,111.378 195.511,110.045 195.5,108.5C 197.047,98.1732 198.547,87.8398 200,77.5C 200.781,82.9167 200.615,88.2501 199.5,93.5 Z"/></g>
<g><path style="opacity:1" fill="#f59c9b" d="M 255.5,92.5 C 255.5,95.1667 255.5,97.8333 255.5,100.5C 254.833,102.167 254.167,103.833 253.5,105.5C 253.5,102.167 253.5,98.8333 253.5,95.5C 254.167,94.5 254.833,93.5 255.5,92.5 Z"/></g>
<g><path style="opacity:1" fill="#f4b9b8" d="M 518.5,89.5 C 519.496,89.4142 520.329,89.7476 521,90.5C 521.167,92 521.333,93.5 521.5,95C 521.66,97.4697 520.993,99.6364 519.5,101.5C 518.509,97.5546 518.176,93.5546 518.5,89.5 Z"/></g>
<g><path style="opacity:1" fill="#f73434" d="M 501.5,86.5 C 504.562,87.2678 506.228,89.2678 506.5,92.5C 506.667,104.171 506.5,115.838 506,127.5C 505.004,129.66 503.504,131.327 501.5,132.5C 501.062,132.565 500.728,132.399 500.5,132C 502.487,130.681 503.654,128.848 504,126.5C 504.667,114.833 504.667,103.167 504,91.5C 503.634,89.5483 502.801,87.8816 501.5,86.5 Z"/></g>
<g><path style="opacity:1" fill="#fe5a59" d="M 422.5,99.5 C 423.167,99.5 423.833,99.5 424.5,99.5C 424.5,115.167 424.5,130.833 424.5,146.5C 422.283,147.369 419.95,147.702 417.5,147.5C 417.5,134.5 417.5,121.5 417.5,108.5C 417.158,107.662 416.492,107.328 415.5,107.5C 413.686,117.786 412.852,128.453 413,139.5C 412.941,142.822 411.774,145.656 409.5,148C 409.728,148.399 410.062,148.565 410.5,148.5C 408.485,149.924 406.152,150.59 403.5,150.5C 403.087,146.817 403.921,143.483 406,140.5C 406.5,127.504 406.667,114.504 406.5,101.5C 411.878,101.155 417.211,100.488 422.5,99.5 Z"/></g>
<g><path style="opacity:1" fill="#2e2524" d="M 117.5,199.5 C 112.5,199.5 107.5,199.5 102.5,199.5C 93.6475,198.721 84.6475,197.888 75.5,197C 75,196.5 74.5,196 74,195.5C 72.9178,182.638 74.9178,170.304 80,158.5C 81.3466,156.534 82.8466,156.201 84.5,157.5C 80.7956,160.908 78.6289,165.241 78,170.5C 75.8414,178.427 75.3414,186.427 76.5,194.5C 90.0806,196.283 103.747,196.949 117.5,196.5C 117.957,183.745 117.291,171.078 115.5,158.5C 114.178,158.33 113.011,158.663 112,159.5C 109.189,169.983 107.523,180.65 107,191.5C 105.513,192.741 104.68,192.241 104.5,190C 105.105,179.034 107.105,168.367 110.5,158C 109.365,157.251 108.365,157.417 107.5,158.5C 106.457,162.869 104.457,166.702 101.5,170C 98.9699,171.422 96.3033,171.755 93.5,171C 88.6978,167.754 86.0311,163.254 85.5,157.5C 85.6646,154.482 85.498,151.482 85,148.5C 84.1667,150.5 83.3333,152.5 82.5,154.5C 80.973,150.341 81.8064,146.674 85,143.5C 84.4975,134.675 87.6642,127.508 94.5,122C 94,121.5 93.5,121 93,120.5C 92.8333,118.5 92.6667,116.5 92.5,114.5C 93.3805,107.844 93.5472,101.177 93,94.5C 90.9361,93.4086 88.7695,93.2419 86.5,94C 79.2991,102.713 71.6324,111.046 63.5,119C 66.0758,119.782 68.0758,121.282 69.5,123.5C 76.1029,119.763 83.1029,118.429 90.5,119.5C 82.7681,120.222 75.6014,122.555 69,126.5C 67.0476,122.606 63.8809,120.94 59.5,121.5C 60.9474,94.2238 74.2807,75.3905 99.5,65C 99.5943,63.5778 99.9276,62.0778 100.5,60.5C 101.333,61.5 102.167,62.5 103,63.5C 108.323,61.4603 113.823,59.9603 119.5,59C 130.5,58.3333 141.5,58.3333 152.5,59C 159.307,59.3602 165.807,60.8602 172,63.5C 170.037,69.8883 169.037,76.555 169,83.5C 158.206,87.2937 150.206,94.2937 145,104.5C 143.506,105.747 142.006,105.747 140.5,104.5C 145.607,99.1358 150.607,93.6358 155.5,88C 159.144,85.3441 163.144,83.5107 167.5,82.5C 167.337,77.453 167.671,72.453 168.5,67.5C 156.715,71.4893 144.715,74.3227 132.5,76C 134.761,78.7716 136.261,81.9382 137,85.5C 137.274,94.3934 138.108,103.227 139.5,112C 139.665,114.917 138.998,117.583 137.5,120C 140.237,121.614 142.403,123.781 144,126.5C 147.787,133.862 150.787,141.529 153,149.5C 155.801,161.275 151.301,167.608 139.5,168.5C 140.799,171.699 140.799,174.865 139.5,178C 132.87,179.163 126.204,179.996 119.5,180.5C 119.666,186.176 119.499,191.843 119,197.5C 118.283,198.044 117.783,198.711 117.5,199.5 Z"/></g>
<g><path style="opacity:1" fill="#f5f4f4" d="M 133.5,90.5 C 133.833,90.5 134.167,90.5 134.5,90.5C 136.61,100.425 133.61,108.258 125.5,114C 122.207,115.608 118.873,115.775 115.5,114.5C 114.5,111.167 113.5,107.834 112.5,104.5C 111.675,103.614 110.675,103.281 109.5,103.5C 109.762,102.022 109.429,100.689 108.5,99.5C 107.614,100.325 107.281,101.325 107.5,102.5C 105.269,103.624 102.936,104.124 100.5,104C 99.5939,102.301 99.2606,100.467 99.5,98.5C 105.146,97.6845 108.313,94.3512 109,88.5C 109.739,87.4258 110.739,86.7591 112,86.5C 118.744,89.8076 125.91,91.141 133.5,90.5 Z"/></g>
<g><path style="opacity:1" fill="#362c2a" d="M 112.5,96.5 C 114.346,96.2222 115.68,96.8888 116.5,98.5C 115.68,100.111 114.346,100.778 112.5,100.5C 112.5,99.1667 112.5,97.8333 112.5,96.5 Z"/></g>
<g><path style="opacity:1" fill="#2f2523" d="M 127.5,94.5 C 129.176,95.1834 129.843,96.5168 129.5,98.5C 128.5,98.5 127.5,98.5 126.5,98.5C 126.433,97.0413 126.766,95.7079 127.5,94.5 Z"/></g>
<g><path style="opacity:1" fill="#ab8064" d="M 134.5,90.5 C 134.167,90.5 133.833,90.5 133.5,90.5C 127.678,88.7493 121.678,86.916 115.5,85C 120.5,82.5 125.5,80 130.5,77.5C 133.84,81.2001 135.174,85.5335 134.5,90.5 Z"/></g>
<g><path style="opacity:1" fill="#625b5a" d="M 122.5,60.5 C 137.694,59.639 152.694,60.8057 167.5,64C 156.404,69.0285 144.738,72.0285 132.5,73C 118.078,82.3765 102.411,88.7099 85.5,92C 78,100.167 70.5,108.333 63,116.5C 63.5549,101.668 69.3882,89.3346 80.5,79.5C 92.8481,69.3226 106.848,62.9893 122.5,60.5 Z"/></g>
<g><path style="opacity:1" fill="#463e3c" d="M 121.5,99.5 C 124.956,100.536 125.29,102.203 122.5,104.5C 121.548,102.955 121.215,101.288 121.5,99.5 Z"/></g>
<g><path style="opacity:1" fill="#f7403e" d="M 266.5,58.5 C 265.217,61.843 265.384,65.1763 267,68.5C 270.333,73.1667 273.667,77.8333 277,82.5C 280.731,89.2026 281.397,96.2026 279,103.5C 277.52,106.817 275.02,108.817 271.5,109.5C 274.2,107.954 276.033,105.621 277,102.5C 277.667,97.1667 277.667,91.8333 277,86.5C 272.667,80.1667 268.333,73.8333 264,67.5C 263.333,64.8333 263.333,62.1667 264,59.5C 264.671,58.7476 265.504,58.4142 266.5,58.5 Z"/></g>
<g><path style="opacity:1" fill="#ab8064" d="M 105.5,88.5 C 106.457,91.4702 105.457,93.9702 102.5,96C 97.3574,95.4712 95.5241,97.6379 97,102.5C 98.8661,104.519 100.033,106.852 100.5,109.5C 99.1797,113.16 97.8464,116.827 96.5,120.5C 95.914,120.291 95.414,119.957 95,119.5C 94.8333,118 94.6667,116.5 94.5,115C 95.3409,107.189 95.6743,99.3557 95.5,91.5C 99.1621,91.2766 102.495,90.2766 105.5,88.5 Z"/></g>
<g><path style="opacity:1" fill="#f63030" d="M 449.5,101.5 C 449.5,112.5 449.5,123.5 449.5,134.5C 449.19,135.738 448.69,135.738 448,134.5C 447.333,123.5 447.333,112.5 448,101.5C 448.69,100.262 449.19,100.262 449.5,101.5 Z"/></g>
<g><path style="opacity:1" fill="#bbb8b7" d="M 106.5,105.5 C 111.068,105.083 112.568,107.083 111,111.5C 110.237,108.807 108.737,106.807 106.5,105.5 Z"/></g>
<g><path style="opacity:1" fill="#aa7f63" d="M 135.5,104.5 C 137.298,108.219 137.798,112.219 137,116.5C 136.653,118.18 135.653,119.18 134,119.5C 132.214,118.103 131.048,116.27 130.5,114C 132.822,111.19 134.488,108.024 135.5,104.5 Z"/></g>
<g><path style="opacity:1" fill="#f43130" d="M 186.5,98.5 C 186.5,107.167 186.5,115.833 186.5,124.5C 185.17,118.705 184.504,112.538 184.5,106C 184.667,99.8333 184.833,93.6667 185,87.5C 186.108,91.0863 186.608,94.753 186.5,98.5 Z"/></g>
<g><path style="opacity:1" fill="#fe17a4" d="M 388.5,105.5 C 391.133,110.078 392.133,115.078 391.5,120.5C 389.194,120.993 386.861,121.326 384.5,121.5C 384.664,118.813 384.497,116.146 384,113.5C 383.617,112.944 383.117,112.611 382.5,112.5C 380.522,123.451 379.856,134.784 380.5,146.5C 382.099,146.768 383.432,146.434 384.5,145.5C 384.5,142.167 384.5,138.833 384.5,135.5C 385.5,135.5 386.5,135.5 387.5,135.5C 388.833,135.5 390.167,135.5 391.5,135.5C 392.778,142.483 391.112,148.483 386.5,153.5C 383.482,153.665 380.482,153.498 377.5,153C 375.951,151.786 374.785,150.286 374,148.5C 373.333,136.167 373.333,123.833 374,111.5C 377.172,105.927 382.005,103.927 388.5,105.5 Z"/></g>
<g><path style="opacity:1" fill="#3b3230" d="M 119.5,106.5 C 122.073,106.148 124.406,106.648 126.5,108C 123.881,108.151 121.547,108.985 119.5,110.5C 118.374,109.192 118.374,107.858 119.5,106.5 Z"/></g>
<g><path style="opacity:1" fill="#fe1aa4" d="M 357.5,110.5 C 359.484,125.798 360.151,141.464 359.5,157.5C 357.194,157.993 354.861,158.326 352.5,158.5C 352.5,152.833 352.5,147.167 352.5,141.5C 352.666,137.486 352.499,133.486 352,129.5C 350.355,139.555 348.522,149.555 346.5,159.5C 345.432,160.434 344.099,160.768 342.5,160.5C 341.167,160.5 339.833,160.5 338.5,160.5C 338.5,158.5 338.5,156.5 338.5,154.5C 338.5,140.833 338.5,127.167 338.5,113.5C 339.5,113.5 340.5,113.5 341.5,113.5C 342.833,113.5 344.167,113.5 345.5,113.5C 345.334,122.839 345.5,132.173 346,141.5C 346.679,137.122 347.512,132.789 348.5,128.5C 348.928,122.42 350.261,116.586 352.5,111C 354.134,110.506 355.801,110.34 357.5,110.5 Z"/></g>
<g><path style="opacity:1" fill="#f73836" d="M 415.5,107.5 C 415.5,117.5 415.5,127.5 415.5,137.5C 415.933,142.229 414.266,145.896 410.5,148.5C 410.062,148.565 409.728,148.399 409.5,148C 411.774,145.656 412.941,142.822 413,139.5C 412.852,128.453 413.686,117.786 415.5,107.5 Z"/></g>
<g><path style="opacity:1" fill="#f4f4f3" d="M 104.5,108.5 C 104.574,111.349 104.908,114.349 105.5,117.5C 106.396,114.856 107.229,112.19 108,109.5C 108.179,112.553 108.679,115.553 109.5,118.5C 110.281,117.271 110.781,115.938 111,114.5C 111.688,121.413 110.021,127.746 106,133.5C 105.667,141.833 105.333,150.167 105,158.5C 102.855,164.416 99.1887,165.749 94,162.5C 93.3333,159.5 93.3333,156.5 94,153.5C 98.5243,138.662 102.024,123.662 104.5,108.5 Z"/></g>
<g><path style="opacity:1" fill="#f5b5b4" d="M 199.5,93.5 C 200.494,102.652 200.827,111.985 200.5,121.5C 200.167,121.5 199.833,121.5 199.5,121.5C 199.824,114.646 199.491,107.979 198.5,101.5C 199.092,98.8728 199.425,96.2062 199.5,93.5 Z"/></g>
<g><path style="opacity:1" fill="#f965c0" d="M 388.5,105.5 C 392.273,107.713 393.94,111.046 393.5,115.5C 393.444,117.64 392.777,119.306 391.5,120.5C 392.133,115.078 391.133,110.078 388.5,105.5 Z"/></g>
<g><path style="opacity:1" fill="#f49594" d="M 519.5,109.5 C 519.183,113.702 519.517,117.702 520.5,121.5C 520.44,122.043 520.107,122.376 519.5,122.5C 518.189,118.016 518.189,113.683 519.5,109.5 Z"/></g>
<g><path style="opacity:1" fill="#f2ecec" d="M 519.5,109.5 C 520.117,109.611 520.617,109.944 521,110.5C 521.755,114.255 521.589,117.922 520.5,121.5C 519.517,117.702 519.183,113.702 519.5,109.5 Z"/></g>
<g><path style="opacity:1" fill="#fe27a6" d="M 330.5,115.5 C 332.481,128.458 333.148,141.791 332.5,155.5C 333.833,155.5 335.167,155.5 336.5,155.5C 336.774,160.263 336.441,164.93 335.5,169.5C 333.167,169.5 330.833,169.5 328.5,169.5C 328.5,167.5 328.5,165.5 328.5,163.5C 323.53,164.353 318.53,165.02 313.5,165.5C 313.333,149.83 313.5,134.163 314,118.5C 315.699,117.594 317.533,117.261 319.5,117.5C 320.833,130.5 322.167,143.5 323.5,156.5C 325.482,143.208 326.149,129.541 325.5,115.5C 327.167,115.5 328.833,115.5 330.5,115.5 Z"/></g>
<g><path style="opacity:1" fill="#cac7c7" d="M 127.5,114.5 C 130.438,120.459 133.105,126.626 135.5,133C 135.167,133.167 134.833,133.333 134.5,133.5C 131.331,127.491 128.998,121.158 127.5,114.5 Z"/></g>
<g><path style="opacity:1" fill="#f1c9c9" d="M 415.5,107.5 C 416.492,107.328 417.158,107.662 417.5,108.5C 416.833,118.167 416.167,127.833 415.5,137.5C 415.5,127.5 415.5,117.5 415.5,107.5 Z"/></g>
<g><path style="opacity:1" fill="#f3f2f2" d="M 113.5,116.5 C 117.169,117.751 120.836,117.751 124.5,116.5C 126.904,120.243 125.904,123.076 121.5,125C 118.518,125.498 115.518,125.665 112.5,125.5C 112.963,122.518 113.296,119.518 113.5,116.5 Z"/></g>
<g><path style="opacity:1" fill="#f85cbb" d="M 341.5,113.5 C 343.265,112.539 345.265,112.205 347.5,112.5C 347.179,118.026 347.512,123.36 348.5,128.5C 347.512,132.789 346.679,137.122 346,141.5C 345.5,132.173 345.334,122.839 345.5,113.5C 344.167,113.5 342.833,113.5 341.5,113.5 Z"/></g>
<g><path style="opacity:1" fill="#f662bd" d="M 382.5,112.5 C 381.856,123.884 382.523,134.884 384.5,145.5C 383.432,146.434 382.099,146.768 380.5,146.5C 379.856,134.784 380.522,123.451 382.5,112.5 Z"/></g>
<g><path style="opacity:1" fill="#fd5655" d="M 533.5,118.5 C 536.685,118.02 539.519,118.686 542,120.5C 542.825,122.701 542.325,124.534 540.5,126C 533.088,128.09 530.755,125.59 533.5,118.5 Z"/></g>
<g><path style="opacity:1" fill="#f73433" d="M 458.5,96.5 C 459.942,97.8195 460.608,99.4862 460.5,101.5C 460.667,112.838 460.5,124.172 460,135.5C 459.392,137.066 458.558,138.4 457.5,139.5C 456.535,138.279 456.702,136.946 458,135.5C 458.429,122.281 458.596,109.281 458.5,96.5 Z"/></g>
<g><path style="opacity:1" fill="#fe1fa5" d="M 297.5,121.5 C 298.5,121.5 299.5,121.5 300.5,121.5C 300.179,127.026 300.512,132.36 301.5,137.5C 303.903,137.448 306.236,137.781 308.5,138.5C 310.51,145.665 311.01,152.999 310,160.5C 309.436,162.887 308.27,164.887 306.5,166.5C 302.143,168.419 297.477,169.419 292.5,169.5C 292.5,156.167 292.5,142.833 292.5,129.5C 291.167,129.5 289.833,129.5 288.5,129.5C 288.5,127.167 288.5,124.833 288.5,122.5C 291.482,122.037 294.482,121.704 297.5,121.5 Z"/></g>
<g><path style="opacity:1" fill="#6fb3ca" d="M 133.5,121.5 C 136.918,122.629 139.751,124.629 142,127.5C 145.451,133.661 147.618,139.994 148.5,146.5C 147.295,142.718 145.795,139.052 144,135.5C 141.948,134.277 139.781,133.277 137.5,132.5C 136.16,128.81 134.826,125.143 133.5,121.5 Z"/></g>
<g><path style="opacity:1" fill="#f3dede" d="M 449.5,101.5 C 450.829,106.624 451.495,112.124 451.5,118C 451.495,123.876 450.829,129.376 449.5,134.5C 449.5,123.5 449.5,112.5 449.5,101.5 Z"/></g>
<g><path style="opacity:1" fill="#fa8c8b" d="M 176.5,99.5 C 176.5,108.167 176.5,116.833 176.5,125.5C 178.167,125.5 179.833,125.5 181.5,125.5C 179.735,126.461 177.735,126.795 175.5,126.5C 175.173,117.318 175.507,108.318 176.5,99.5 Z"/></g>
<g><path style="opacity:1" fill="#73bad2" d="M 95.5,123.5 C 96.5,123.5 97.5,123.5 98.5,123.5C 95.9494,134.995 93.2827,146.495 90.5,158C 90.8157,164.976 94.4824,167.976 101.5,167C 93.8604,169.755 89.3604,166.921 88,158.5C 87.0905,149.756 87.4238,141.089 89,132.5C 90.6107,129.062 92.7774,126.062 95.5,123.5 Z"/></g>
<g><path style="opacity:1" fill="#77c3dd" d="M 126.5,123.5 C 128.64,125.7 130.14,128.367 131,131.5C 130.674,135.47 130.674,139.47 131,143.5C 132.694,147.999 134.694,152.332 137,156.5C 136.598,163.132 136.765,169.799 137.5,176.5C 131.855,177.134 126.189,177.468 120.5,177.5C 119.75,171.835 118.917,166.168 118,160.5C 117.74,158.382 116.74,156.716 115,155.5C 113.736,148.21 111.57,141.21 108.5,134.5C 109.095,132.143 110.095,129.977 111.5,128C 117.507,129.671 122.507,128.171 126.5,123.5 Z"/></g>
<g><path style="opacity:1" fill="#f9b7df" d="M 297.5,121.5 C 298.568,120.566 299.901,120.232 301.5,120.5C 301.5,126.167 301.5,131.833 301.5,137.5C 300.512,132.36 300.179,127.026 300.5,121.5C 299.5,121.5 298.5,121.5 297.5,121.5 Z"/></g>
<g><path style="opacity:1" fill="#fd25a6" d="M 285.5,126.5 C 288.403,135.625 288.069,144.625 284.5,153.5C 282.45,153.961 280.45,154.628 278.5,155.5C 277.833,161.167 277.167,166.833 276.5,172.5C 273.916,173.393 271.249,173.726 268.5,173.5C 268.5,157.833 268.5,142.167 268.5,126.5C 274.198,125.21 279.864,125.21 285.5,126.5 Z"/></g>
<g><path style="opacity:1" fill="#f6a1a0" d="M 422.5,99.5 C 423.919,98.5489 425.585,98.2155 427.5,98.5C 427.83,114.675 427.496,130.675 426.5,146.5C 427.151,130.464 426.484,114.798 424.5,99.5C 423.833,99.5 423.167,99.5 422.5,99.5 Z"/></g>
<g><path style="opacity:1" fill="#f53131" d="M 439.5,123.5 C 439.5,130.167 439.5,136.833 439.5,143.5C 438.18,140.572 437.514,137.239 437.5,133.5C 437.514,129.761 438.18,126.428 439.5,123.5 Z"/></g>
<g><path style="opacity:1" fill="#f85bbb" d="M 330.5,115.5 C 331.568,114.566 332.901,114.232 334.5,114.5C 334.5,127.833 334.5,141.167 334.5,154.5C 335.5,154.5 336.5,154.5 337.5,154.5C 337.5,159.167 337.5,163.833 337.5,168.5C 337.158,169.338 336.492,169.672 335.5,169.5C 336.441,164.93 336.774,160.263 336.5,155.5C 335.167,155.5 333.833,155.5 332.5,155.5C 333.148,141.791 332.481,128.458 330.5,115.5 Z"/></g>
<g><path style="opacity:1" fill="#f9b4b4" d="M 430.5,97.5 C 430.5,113.167 430.5,128.833 430.5,144.5C 431.833,144.5 433.167,144.5 434.5,144.5C 433.791,145.404 432.791,145.737 431.5,145.5C 430.169,137.862 429.502,129.862 429.5,121.5C 429.5,113.326 429.834,105.326 430.5,97.5 Z"/></g>
<g><path style="opacity:1" fill="#f86fc2" d="M 285.5,126.5 C 286.728,127.306 287.728,128.306 288.5,129.5C 289.833,129.5 291.167,129.5 292.5,129.5C 292.5,142.833 292.5,156.167 292.5,169.5C 291.505,156.677 291.171,143.677 291.5,130.5C 290.448,130.351 289.448,130.517 288.5,131C 289.469,135.737 289.803,140.57 289.5,145.5C 288.865,148.762 287.198,151.428 284.5,153.5C 288.069,144.625 288.403,135.625 285.5,126.5 Z"/></g>
<g><path style="opacity:1" fill="#f93b3b" d="M 424.5,99.5 C 426.484,114.798 427.151,130.464 426.5,146.5C 425.833,146.5 425.167,146.5 424.5,146.5C 424.5,130.833 424.5,115.167 424.5,99.5 Z"/></g>
<g><path style="opacity:1" fill="#fe23a6" d="M 260.5,128.5 C 262.166,142.492 263.832,156.492 265.5,170.5C 265.408,172.258 265.075,173.924 264.5,175.5C 262.5,175.5 260.5,175.5 258.5,175.5C 258.167,172.833 257.833,170.167 257.5,167.5C 256.167,167.5 254.833,167.5 253.5,167.5C 253.5,170.833 253.5,174.167 253.5,177.5C 250.794,177.575 248.127,177.908 245.5,178.5C 245.5,181.167 245.5,183.833 245.5,186.5C 242.5,186.5 239.5,186.5 236.5,186.5C 236.5,184.5 236.5,182.5 236.5,180.5C 233.518,180.963 230.518,181.296 227.5,181.5C 227.5,184.167 227.5,186.833 227.5,189.5C 224.482,189.704 221.482,190.037 218.5,190.5C 218.5,185.833 218.5,181.167 218.5,176.5C 219.167,176.5 219.5,176.167 219.5,175.5C 221.091,171.796 221.924,167.796 222,163.5C 222.5,153.839 222.666,144.172 222.5,134.5C 227.463,133.574 232.463,132.908 237.5,132.5C 238.5,132.5 239.5,132.5 240.5,132.5C 239.852,145.876 240.519,158.876 242.5,171.5C 243.5,171.5 244.5,171.5 245.5,171.5C 246.259,157.76 247.759,144.093 250,130.5C 253.321,129.029 256.821,128.363 260.5,128.5 Z"/></g>
<g><path style="opacity:1" fill="#e5e4e4" d="M 133.5,135.5 C 142.679,134.786 146.679,139.12 145.5,148.5C 141.818,148.665 138.152,148.499 134.5,148C 136.384,147.784 138.051,147.117 139.5,146C 137.565,144.762 135.565,144.262 133.5,144.5C 139.968,142.752 139.635,141.585 132.5,141C 134.376,139.983 136.376,139.149 138.5,138.5C 136.577,137.692 134.577,137.192 132.5,137C 133.056,136.617 133.389,136.117 133.5,135.5 Z"/></g>
<g><path style="opacity:1" fill="#f76bc1" d="M 237.5,132.5 C 238.919,131.549 240.585,131.216 242.5,131.5C 242.5,144.833 242.5,158.167 242.5,171.5C 240.519,158.876 239.852,145.876 240.5,132.5C 239.5,132.5 238.5,132.5 237.5,132.5 Z"/></g>
<g><path style="opacity:1" fill="#f1d7e6" d="M 277.5,132.5 C 278.809,134.571 279.475,137.071 279.5,140C 279.167,142.5 278.833,145 278.5,147.5C 277.506,142.544 277.173,137.544 277.5,132.5 Z"/></g>
<g><path style="opacity:1" fill="#fe23a6" d="M 213.5,138.5 C 214.072,140.255 214.906,141.922 216,143.5C 217.046,156.943 216.546,170.276 214.5,183.5C 207.777,188.321 202.277,187.321 198,180.5C 197.833,174.333 197.667,168.167 197.5,162C 197.37,155.065 197.87,148.232 199,141.5C 203.173,137.496 208.007,136.496 213.5,138.5 Z"/></g>
<g><path style="opacity:1" fill="#fe18a4" d="M 188.5,141.5 C 189.833,141.5 191.167,141.5 192.5,141.5C 192.5,157.167 192.5,172.833 192.5,188.5C 190.139,188.674 187.806,189.007 185.5,189.5C 185.5,176.167 185.5,162.833 185.5,149.5C 184.5,149.5 183.5,149.5 182.5,149.5C 180.518,162.792 179.851,176.459 180.5,190.5C 178.194,190.993 175.861,191.326 173.5,191.5C 173.5,175.5 173.5,159.5 173.5,143.5C 178.5,142.833 183.5,142.167 188.5,141.5 Z"/></g>
<g><path style="opacity:1" fill="#f2e8e8" d="M 509.5,87.5 C 509.5,101.833 509.5,116.167 509.5,130.5C 508.883,130.389 508.383,130.056 508,129.5C 504.405,137.192 498.572,139.692 490.5,137C 489.275,135.437 487.775,134.27 486,133.5C 483.249,138.258 479.082,141.091 473.5,142C 470.5,142.667 467.5,142.667 464.5,142C 463.54,140.581 462.707,139.081 462,137.5C 457.533,146.766 450.866,148.766 442,143.5C 440.982,146.683 438.815,148.016 435.5,147.5C 433.667,147.415 432.334,146.748 431.5,145.5C 432.791,145.737 433.791,145.404 434.5,144.5C 436.415,144.784 438.081,144.451 439.5,143.5C 439.5,136.833 439.5,130.167 439.5,123.5C 440.325,127.647 440.825,131.981 441,136.5C 442.123,140.819 444.956,142.819 449.5,142.5C 452.726,142.652 455.393,141.652 457.5,139.5C 458.558,138.4 459.392,137.066 460,135.5C 460.5,124.172 460.667,112.838 460.5,101.5C 462.119,98.4521 463.119,95.1188 463.5,91.5C 463.5,107.167 463.5,122.833 463.5,138.5C 480.054,140.28 487.054,132.946 484.5,116.5C 484.833,116.5 485.167,116.5 485.5,116.5C 485.335,120.182 485.501,123.848 486,127.5C 489.411,134.676 494.578,136.342 501.5,132.5C 503.504,131.327 505.004,129.66 506,127.5C 506.5,115.838 506.667,104.171 506.5,92.5C 508.028,91.1979 509.028,89.5313 509.5,87.5 Z"/></g>
<g><path style="opacity:1" fill="#f2c2c2" d="M 472.5,114.5 C 473.809,116.571 474.475,119.071 474.5,122C 474.618,125.027 474.118,127.861 473,130.5C 472.501,125.177 472.334,119.844 472.5,114.5 Z"/></g>
<g><path style="opacity:1" fill="#f8504b" d="M 495.5,92.5 C 495.5,103.833 495.5,115.167 495.5,126.5C 494.671,127.332 493.838,126.999 493,125.5C 492.333,114.833 492.333,104.167 493,93.5C 493.671,92.7476 494.504,92.4142 495.5,92.5 Z"/></g>
<g><path style="opacity:1" fill="#f4f1f1" d="M 495.5,92.5 C 496.117,92.6107 496.617,92.944 497,93.5C 497.167,99 497.333,104.5 497.5,110C 497.495,115.876 496.829,121.376 495.5,126.5C 495.5,115.167 495.5,103.833 495.5,92.5 Z"/></g>
<g><path style="opacity:1" fill="#6baac0" d="M 107.5,140.5 C 110.527,144.914 112.194,149.914 112.5,155.5C 110.833,155.5 109.167,155.5 107.5,155.5C 107.5,150.5 107.5,145.5 107.5,140.5 Z"/></g>
<g><path style="opacity:1" fill="#f768c0" d="M 192.5,141.5 C 193.167,149.5 193.833,157.5 194.5,165.5C 195.132,173.573 194.465,181.24 192.5,188.5C 192.5,172.833 192.5,157.167 192.5,141.5 Z"/></g>
<g><path style="opacity:1" fill="#f890d0" d="M 188.5,141.5 C 190.265,140.539 192.265,140.205 194.5,140.5C 194.5,148.833 194.5,157.167 194.5,165.5C 193.833,157.5 193.167,149.5 192.5,141.5C 191.167,141.5 189.833,141.5 188.5,141.5 Z"/></g>
<g><path style="opacity:1" fill="#f765be" d="M 213.5,138.5 C 215.587,139.585 216.92,141.251 217.5,143.5C 217.5,154.5 217.5,165.5 217.5,176.5C 217.834,179.491 216.834,181.824 214.5,183.5C 216.546,170.276 217.046,156.943 216,143.5C 214.906,141.922 214.072,140.255 213.5,138.5 Z"/></g>
<g><path style="opacity:1" fill="#f867bf" d="M 308.5,138.5 C 309.885,139.574 311.051,140.907 312,142.5C 312.667,148.833 312.667,155.167 312,161.5C 310.924,164.079 309.091,165.746 306.5,166.5C 308.27,164.887 309.436,162.887 310,160.5C 311.01,152.999 310.51,145.665 308.5,138.5 Z"/></g>
<g><path style="opacity:1" fill="#f778c6" d="M 319.5,117.5 C 320.568,116.566 321.901,116.232 323.5,116.5C 323.5,129.833 323.5,143.167 323.5,156.5C 322.167,143.5 320.833,130.5 319.5,117.5 Z"/></g>
<g><path style="opacity:1" fill="#e4e3e3" d="M 147.5,149.5 C 148.5,149.5 149.5,149.5 150.5,149.5C 151.503,156.665 148.503,159.498 141.5,158C 138.598,156.06 137.598,153.56 138.5,150.5C 139.624,151.914 140.624,153.414 141.5,155C 146.493,156.509 148.493,154.675 147.5,149.5 Z"/></g>
<g><path style="opacity:1" fill="#f3f2f3" d="M 206.5,144.5 C 207.829,149.792 208.496,155.458 208.5,161.5C 208.496,167.542 207.829,173.208 206.5,178.5C 206.5,167.167 206.5,155.833 206.5,144.5 Z"/></g>
<g><path style="opacity:1" fill="#f460bb" d="M 352.5,141.5 C 351.463,142.93 350.796,144.597 350.5,146.5C 349.9,149.999 349.234,153.499 348.5,157C 348.316,158.376 347.649,159.209 346.5,159.5C 348.522,149.555 350.355,139.555 352,129.5C 352.499,133.486 352.666,137.486 352.5,141.5 Z"/></g>
<g><path style="opacity:1" fill="#f87cc7" d="M 357.5,110.5 C 358.568,109.566 359.901,109.232 361.5,109.5C 362.151,125.868 361.485,141.868 359.5,157.5C 360.151,141.464 359.484,125.798 357.5,110.5 Z"/></g>
<g><path style="opacity:1" fill="#f567bd" d="M 387.5,135.5 C 389.265,134.539 391.265,134.205 393.5,134.5C 393.825,139.599 393.325,144.599 392,149.5C 390.549,151.464 388.716,152.797 386.5,153.5C 391.112,148.483 392.778,142.483 391.5,135.5C 390.167,135.5 388.833,135.5 387.5,135.5 Z"/></g>
<g><path style="opacity:1" fill="#71b6ce" d="M 142.5,151.5 C 143.675,151.281 144.675,151.614 145.5,152.5C 143.948,153.798 142.948,153.465 142.5,151.5 Z"/></g>
<g><path style="opacity:1" fill="#f3e2ec" d="M 302.5,145.5 C 303.607,150.081 303.773,154.748 303,159.5C 302.617,160.056 302.117,160.389 301.5,160.5C 301.179,155.305 301.513,150.305 302.5,145.5 Z"/></g>
<g><path style="opacity:1" fill="#f49ad1" d="M 302.5,145.5 C 301.513,150.305 301.179,155.305 301.5,160.5C 300.185,155.32 300.185,149.986 301.5,144.5C 302.107,144.624 302.44,144.957 302.5,145.5 Z"/></g>
<g><path style="opacity:1" fill="#f674c4" d="M 206.5,144.5 C 206.5,155.833 206.5,167.167 206.5,178.5C 205.883,178.389 205.383,178.056 205,177.5C 204.333,166.833 204.333,156.167 205,145.5C 205.383,144.944 205.883,144.611 206.5,144.5 Z"/></g>
<g><path style="opacity:1" fill="#f57ec4" d="M 254.5,140.5 C 255.879,146.617 256.546,152.95 256.5,159.5C 255.5,159.5 254.5,159.5 253.5,159.5C 253.653,153.155 253.986,146.822 254.5,140.5 Z"/></g>
<g><path style="opacity:1" fill="#f69ad3" d="M 217.5,143.5 C 218.167,154.167 218.833,164.833 219.5,175.5C 219.5,176.167 219.167,176.5 218.5,176.5C 218.167,176.5 217.833,176.5 217.5,176.5C 217.5,165.5 217.5,154.5 217.5,143.5 Z"/></g>
<g><path style="opacity:1" fill="#f5b4dc" d="M 352.5,141.5 C 352.5,147.167 352.5,152.833 352.5,158.5C 351.833,154.5 351.167,150.5 350.5,146.5C 350.796,144.597 351.463,142.93 352.5,141.5 Z"/></g>
<g><path style="opacity:1" fill="#f4a6d5" d="M 231.5,140.5 C 232.829,145.624 233.495,151.124 233.5,157C 233.499,162.677 233.166,168.177 232.5,173.5C 232.821,168.305 232.487,163.305 231.5,158.5C 231.5,152.5 231.5,146.5 231.5,140.5 Z"/></g>
<g><path style="opacity:1" fill="#d3d2d2" d="M 84.5,157.5 C 84.8333,157.5 85.1667,157.5 85.5,157.5C 86.0311,163.254 88.6978,167.754 93.5,171C 96.3033,171.755 98.9699,171.422 101.5,170C 104.457,166.702 106.457,162.869 107.5,158.5C 108.365,157.417 109.365,157.251 110.5,158C 107.105,168.367 105.105,179.034 104.5,190C 104.68,192.241 105.513,192.741 107,191.5C 107.523,180.65 109.189,169.983 112,159.5C 113.011,158.663 114.178,158.33 115.5,158.5C 117.291,171.078 117.957,183.745 117.5,196.5C 103.747,196.949 90.0806,196.283 76.5,194.5C 75.3414,186.427 75.8414,178.427 78,170.5C 78.6289,165.241 80.7956,160.908 84.5,157.5 Z"/></g>
<g><path style="opacity:1" fill="#f2b8dc" d="M 337.5,154.5 C 337.833,154.5 338.167,154.5 338.5,154.5C 338.5,156.5 338.5,158.5 338.5,160.5C 339.833,160.5 341.167,160.5 342.5,160.5C 341.432,161.434 340.099,161.768 338.5,161.5C 338.802,164.059 338.468,166.393 337.5,168.5C 337.5,163.833 337.5,159.167 337.5,154.5 Z"/></g>
<g><path style="opacity:1" fill="#74bdd5" d="M 148.5,159.5 C 150.688,160.536 150.688,162.036 148.5,164C 145.649,165.289 142.649,165.789 139.5,165.5C 138.84,160.86 140.507,159.527 144.5,161.5C 146.355,161.66 147.688,160.993 148.5,159.5 Z"/></g>
<g><path style="opacity:1" fill="#f561bc" d="M 231.5,140.5 C 231.5,146.5 231.5,152.5 231.5,158.5C 231.28,163.434 230.613,168.267 229.5,173C 230.094,173.464 230.761,173.631 231.5,173.5C 230.432,174.434 229.099,174.768 227.5,174.5C 229.634,163.12 230.967,151.787 231.5,140.5 Z"/></g>
<g><path style="opacity:1" fill="#f1e6ed" d="M 231.5,158.5 C 232.487,163.305 232.821,168.305 232.5,173.5C 232.167,173.5 231.833,173.5 231.5,173.5C 230.761,173.631 230.094,173.464 229.5,173C 230.613,168.267 231.28,163.434 231.5,158.5 Z"/></g>
<g><path style="opacity:1" fill="#f875c4" d="M 260.5,128.5 C 261.725,129.152 262.392,130.319 262.5,132C 263.062,138.048 264.062,143.881 265.5,149.5C 265.878,156.355 266.544,163.189 267.5,170C 267.333,171.5 267.167,173 267,174.5C 266.329,175.252 265.496,175.586 264.5,175.5C 265.075,173.924 265.408,172.258 265.5,170.5C 263.832,156.492 262.166,142.492 260.5,128.5 Z"/></g>
<g><path style="opacity:1" fill="#f751b7" d="M 182.5,149.5 C 182.5,163.167 182.5,176.833 182.5,190.5C 181.833,190.5 181.167,190.5 180.5,190.5C 179.851,176.459 180.518,162.792 182.5,149.5 Z"/></g>
<g><path style="opacity:1" fill="#f6afd9" d="M 182.5,149.5 C 183.5,149.5 184.5,149.5 185.5,149.5C 185.5,162.833 185.5,176.167 185.5,189.5C 184.669,176.673 184.169,163.673 184,150.5C 183.831,164.006 183.331,177.34 182.5,190.5C 182.5,176.833 182.5,163.167 182.5,149.5 Z"/></g>
<g><path style="opacity:1" fill="#3e3533" d="M 139.5,179.5 C 140.586,179.62 141.253,180.287 141.5,181.5C 143.088,186.716 143.755,192.049 143.5,197.5C 142.5,197.5 141.5,197.5 140.5,197.5C 140.64,191.464 140.307,185.464 139.5,179.5 Z"/></g>
<g><path style="opacity:1" fill="#f1e9ed" d="M 268.5,126.5 C 268.5,142.167 268.5,157.833 268.5,173.5C 271.249,173.726 273.916,173.393 276.5,172.5C 277.167,166.833 277.833,161.167 278.5,155.5C 280.45,154.628 282.45,153.961 284.5,153.5C 287.198,151.428 288.865,148.762 289.5,145.5C 289.781,152.378 286.781,157.045 280.5,159.5C 279.671,164.467 279.171,169.467 279,174.5C 278.692,175.308 278.192,175.975 277.5,176.5C 271.46,177.521 265.46,178.354 259.5,179C 258.277,176.948 257.277,174.781 256.5,172.5C 256.602,179.401 253.268,182.401 246.5,181.5C 247.812,188.849 244.812,191.683 237.5,190C 235.963,188.89 235.297,187.39 235.5,185.5C 233.801,185.34 232.134,185.506 230.5,186C 229.637,192.603 225.971,194.936 219.5,193C 218.748,192.329 218.414,191.496 218.5,190.5C 221.482,190.037 224.482,189.704 227.5,189.5C 227.5,186.833 227.5,184.167 227.5,181.5C 230.518,181.296 233.518,180.963 236.5,180.5C 236.5,182.5 236.5,184.5 236.5,186.5C 239.5,186.5 242.5,186.5 245.5,186.5C 245.5,183.833 245.5,181.167 245.5,178.5C 248.127,177.908 250.794,177.575 253.5,177.5C 253.5,174.167 253.5,170.833 253.5,167.5C 254.833,167.5 256.167,167.5 257.5,167.5C 257.833,170.167 258.167,172.833 258.5,175.5C 260.5,175.5 262.5,175.5 264.5,175.5C 265.496,175.586 266.329,175.252 267,174.5C 267.167,173 267.333,171.5 267.5,170C 266.544,163.189 265.878,156.355 265.5,149.5C 266.314,151.631 266.814,153.964 267,156.5C 267.17,146.325 267.67,136.325 268.5,126.5 Z"/></g>
</svg>
