<?xml version="1.0" encoding="UTF-8"?>
<!DOCTYPE svg PUBLIC "-//W3C//DTD SVG 1.1//EN" "http://www.w3.org/Graphics/SVG/1.1/DTD/svg11.dtd">
<svg xmlns="http://www.w3.org/2000/svg" version="1.1" width="600px" height="117px" style="shape-rendering:geometricPrecision; text-rendering:geometricPrecision; image-rendering:optimizeQuality; fill-rule:evenodd; clip-rule:evenodd" xmlns:xlink="http://www.w3.org/1999/xlink">
<g><path style="opacity:1" fill="#fffdfd" d="M -0.5,-0.5 C 199.5,-0.5 399.5,-0.5 599.5,-0.5C 599.5,6.16667 599.5,12.8333 599.5,19.5C 598.833,19.5 598.5,19.1667 598.5,18.5C 598.5,17.5 598.5,16.5 598.5,15.5C 581.82,15.1672 565.153,15.5005 548.5,16.5C 547.618,19.7906 546.952,23.124 546.5,26.5C 544.33,24.9138 541.996,23.5804 539.5,22.5C 529.354,15.3006 518.021,12.8006 505.5,15C 493.355,18.3076 486.355,26.141 484.5,38.5C 483.883,38.6107 483.383,38.944 483,39.5C 481.062,32.9151 477.228,27.9151 471.5,24.5C 467.323,19.5709 461.99,16.4042 455.5,15C 433.129,11.5136 417.462,20.0136 408.5,40.5C 407.463,39.0697 406.796,37.403 406.5,35.5C 404.622,29.624 400.955,25.2907 395.5,22.5C 391.752,19.2925 387.418,17.1258 382.5,16C 372.151,15.1677 361.817,15.3344 351.5,16.5C 350.618,19.7906 349.952,23.124 349.5,26.5C 347.33,24.9138 344.996,23.5804 342.5,22.5C 332.354,15.3006 321.021,12.8006 308.5,15C 301.949,16.73 296.616,20.23 292.5,25.5C 291.539,23.7354 291.205,21.7354 291.5,19.5C 289.5,19.5 287.5,19.5 285.5,19.5C 285.5,18.1667 285.5,16.8333 285.5,15.5C 277.5,15.5 269.5,15.5 261.5,15.5C 260.833,19.8333 260.167,24.1667 259.5,28.5C 258.399,25.0827 256.065,22.7494 252.5,21.5C 240.994,14.6949 228.661,12.8615 215.5,16C 210.764,17.9198 206.764,20.7532 203.5,24.5C 200.794,24.3122 198.461,23.3122 196.5,21.5C 185.026,14.7006 172.693,12.8673 159.5,16C 154.787,17.8873 150.787,20.7206 147.5,24.5C 146.549,23.0813 146.216,21.4147 146.5,19.5C 143.918,19.9746 141.918,19.3079 140.5,17.5C 132.903,15.5332 124.903,14.8665 116.5,15.5C 110.449,43.0894 104.782,70.7561 99.5,98.5C 101.5,98.5 103.5,98.5 105.5,98.5C 105.5,99.8333 105.5,101.167 105.5,102.5C 105.5,103.5 105.5,104.5 105.5,105.5C 113.5,105.5 121.5,105.5 129.5,105.5C 129.5,104.5 129.5,103.5 129.5,102.5C 130.395,97.188 131.229,91.8546 132,86.5C 132.278,85.5842 132.778,84.9175 133.5,84.5C 131.891,90.5909 133.891,94.5909 139.5,96.5C 139.5,96.8333 139.5,97.1667 139.5,97.5C 139.33,98.8221 139.663,99.9887 140.5,101C 154.474,108.115 168.474,108.115 182.5,101C 185.399,98.9157 188.066,96.7491 190.5,94.5C 192.674,94.7497 194.341,95.7497 195.5,97.5C 195.33,98.8221 195.663,99.9887 196.5,101C 208.841,107.291 221.508,107.957 234.5,103C 238.241,101.262 241.408,98.7621 244,95.5C 244.399,95.7284 244.565,96.0618 244.5,96.5C 246.279,98.3435 248.612,99.0102 251.5,98.5C 251.167,99.8333 250.833,101.167 250.5,102.5C 250.5,103.5 250.5,104.5 250.5,105.5C 258.5,105.5 266.5,105.5 274.5,105.5C 274.5,104.5 274.5,103.5 274.5,102.5C 275.39,96.6126 276.723,90.946 278.5,85.5C 278.187,88.2469 278.52,90.9135 279.5,93.5C 281.419,94.6125 283.086,95.9458 284.5,97.5C 285.614,100.775 287.947,102.942 291.5,104C 302.586,107.354 313.586,107.02 324.5,103C 327.783,101.439 330.617,99.2728 333,96.5C 333.278,97.4158 333.778,98.0825 334.5,98.5C 336.5,98.5 338.5,98.5 340.5,98.5C 340.5,99.8333 340.5,101.167 340.5,102.5C 340.5,103.5 340.5,104.5 340.5,105.5C 348.5,105.5 356.5,105.5 364.5,105.5C 364.5,104.5 364.5,103.5 364.5,102.5C 365.304,96.9766 366.304,91.4766 367.5,86C 367.684,84.6244 368.351,83.7911 369.5,83.5C 371.159,88.1432 372.826,92.8098 374.5,97.5C 375.689,98.4287 377.022,98.762 378.5,98.5C 378.961,100.55 379.628,102.55 380.5,104.5C 389.167,105.833 397.833,105.833 406.5,104.5C 407.065,102.253 406.399,100.253 404.5,98.5C 400.833,89.1667 397.167,79.8333 393.5,70.5C 396.987,69.2546 399.987,67.2546 402.5,64.5C 402.194,67.3854 402.527,70.0521 403.5,72.5C 404.289,81.0809 407.956,88.0809 414.5,93.5C 418.639,100.108 424.639,104.275 432.5,106C 450.757,108.53 465.09,102.363 475.5,87.5C 474.779,92.3596 476.779,95.3596 481.5,96.5C 481.5,96.8333 481.5,97.1667 481.5,97.5C 481.33,98.8221 481.663,99.9887 482.5,101C 497.879,108.663 512.879,107.996 527.5,99C 529.07,97.6032 530.404,96.1032 531.5,94.5C 531.5,95.8333 531.5,97.1667 531.5,98.5C 533.5,98.5 535.5,98.5 537.5,98.5C 537.5,99.8333 537.5,101.167 537.5,102.5C 537.5,103.5 537.5,104.5 537.5,105.5C 554.167,105.5 570.833,105.5 587.5,105.5C 587.5,104.5 587.5,103.5 587.5,102.5C 588.835,95.4897 590.169,88.4897 591.5,81.5C 588.918,81.9746 586.918,81.3079 585.5,79.5C 579.588,77.5437 573.255,76.8771 566.5,77.5C 566.5,76.5 566.5,75.5 566.5,74.5C 574.899,72.5751 583.566,71.9085 592.5,72.5C 592.5,71.5 592.5,70.5 592.5,69.5C 594.09,62.5519 595.423,55.5519 596.5,48.5C 594.265,48.7947 592.265,48.4614 590.5,47.5C 590.5,46.5 590.5,45.5 590.5,44.5C 584.833,44.5 579.167,44.5 573.5,44.5C 573.5,44.1667 573.5,43.8333 573.5,43.5C 582.167,43.5 590.833,43.5 599.5,43.5C 599.5,67.8333 599.5,92.1667 599.5,116.5C 399.5,116.5 199.5,116.5 -0.5,116.5C -0.5,77.5 -0.5,38.5 -0.5,-0.5 Z"/></g>
<g><path style="opacity:1" fill="#ff0402" d="M 196.5,21.5 C 194.765,28.3041 191.932,34.6375 188,40.5C 181.937,37.0257 175.437,35.5257 168.5,36C 166.294,38.209 165.96,40.709 167.5,43.5C 169.186,44.8569 170.852,46.1902 172.5,47.5C 175.009,48.9213 177.343,50.5879 179.5,52.5C 182.244,54.9837 184.244,57.9837 185.5,61.5C 191.158,82.6847 183.158,95.1847 161.5,99C 153.904,100.102 146.57,99.2687 139.5,96.5C 133.891,94.5909 131.891,90.5909 133.5,84.5C 132.897,79.3814 133.564,74.7147 135.5,70.5C 143.395,77.299 152.395,79.4656 162.5,77C 163.38,75.6439 163.714,74.1439 163.5,72.5C 161.77,68.9547 159.104,66.288 155.5,64.5C 148.423,60.0042 144.09,53.6709 142.5,45.5C 141.506,38.5513 142.84,32.2179 146.5,26.5C 146.833,25.8333 147.167,25.1667 147.5,24.5C 150.787,20.7206 154.787,17.8873 159.5,16C 172.693,12.8673 185.026,14.7006 196.5,21.5 Z"/></g>
<g><path style="opacity:1" fill="#ff0603" d="M 252.5,21.5 C 252.5,22.1667 252.5,22.8333 252.5,23.5C 249.767,29.2981 246.767,34.9647 243.5,40.5C 237.301,36.4241 230.634,35.0907 223.5,36.5C 220.839,41.2048 222.173,44.5382 227.5,46.5C 227.5,47.1667 227.833,47.5 228.5,47.5C 230.657,49.4121 232.991,51.0787 235.5,52.5C 237.412,54.6572 239.079,56.9906 240.5,59.5C 247.178,76.3043 242.511,88.8043 226.5,97C 217.273,99.6041 207.939,100.104 198.5,98.5C 197.791,97.596 196.791,97.2627 195.5,97.5C 194.341,95.7497 192.674,94.7497 190.5,94.5C 190.167,93.5 189.5,92.8333 188.5,92.5C 188.169,85.1365 188.503,77.8032 189.5,70.5C 190.417,71.1272 191.417,71.4606 192.5,71.5C 192.5,72.1667 192.833,72.5 193.5,72.5C 201.199,78.1794 209.532,79.5127 218.5,76.5C 219.788,74.7015 219.788,73.0348 218.5,71.5C 216.576,68.9087 214.242,66.5754 211.5,64.5C 203.905,59.9138 199.572,53.2471 198.5,44.5C 197.329,36.9957 198.996,30.329 203.5,24.5C 206.764,20.7532 210.764,17.9198 215.5,16C 228.661,12.8615 240.994,14.6949 252.5,21.5 Z"/></g>
<g><path style="opacity:1" fill="#ff0503" d="M 342.5,22.5 C 341.89,23.391 341.557,24.391 341.5,25.5C 338.845,30.4302 336.178,35.4302 333.5,40.5C 326.578,36.1363 319.411,35.1363 312,37.5C 311.109,42.1186 312.943,45.1186 317.5,46.5C 320.167,48.8333 322.833,51.1667 325.5,53.5C 327.555,55.5549 329.221,57.8883 330.5,60.5C 337.192,82.9305 328.858,95.7639 305.5,99C 299.039,99.8492 292.706,99.3492 286.5,97.5C 285.833,97.5 285.167,97.5 284.5,97.5C 283.086,95.9458 281.419,94.6125 279.5,93.5C 278.52,90.9135 278.187,88.2469 278.5,85.5C 278.173,80.456 278.506,75.456 279.5,70.5C 280.183,70.8627 280.85,71.1961 281.5,71.5C 289.32,77.6127 297.987,79.4461 307.5,77C 309.325,75.5341 309.825,73.7008 309,71.5C 302.645,66.1434 296.645,60.4768 291,54.5C 289.015,50.7408 287.848,46.7408 287.5,42.5C 286.957,36.1346 288.623,30.468 292.5,25.5C 296.616,20.23 301.949,16.73 308.5,15C 321.021,12.8006 332.354,15.3006 342.5,22.5 Z"/></g>
<g><path style="opacity:1" fill="#ff0502" d="M 471.5,24.5 C 472.833,26.5 474.167,28.5 475.5,30.5C 480.764,50.2491 477.597,68.5825 466,85.5C 453.597,98.4759 438.764,102.476 421.5,97.5C 419.004,96.4196 416.67,95.0862 414.5,93.5C 407.956,88.0809 404.289,81.0809 403.5,72.5C 403.334,66.1579 403.5,59.8246 404,53.5C 404.623,48.7941 406.123,44.4608 408.5,40.5C 417.462,20.0136 433.129,11.5136 455.5,15C 461.99,16.4042 467.323,19.5709 471.5,24.5 Z"/></g>
<g><path style="opacity:1" fill="#ff0402" d="M 539.5,22.5 C 538.89,23.391 538.557,24.391 538.5,25.5C 535.603,30.2886 532.937,35.2886 530.5,40.5C 524.234,37.0995 517.567,35.5995 510.5,36C 507.172,41.1336 508.505,44.6336 514.5,46.5C 517.141,48.8044 519.808,51.1377 522.5,53.5C 524.412,55.6572 526.079,57.9906 527.5,60.5C 533.628,82.748 525.294,95.5813 502.5,99C 495.235,100.071 488.235,99.2376 481.5,96.5C 476.779,95.3596 474.779,92.3596 475.5,87.5C 475.5,86.5 475.5,85.5 475.5,84.5C 475.173,79.7863 475.507,75.1196 476.5,70.5C 478.36,71.2599 480.027,72.2599 481.5,73.5C 487.938,77.5895 494.938,79.0895 502.5,78C 506.546,76.529 507.379,74.029 505,70.5C 500,66.1667 495,61.8333 490,57.5C 487.962,54.7568 486.462,51.7568 485.5,48.5C 484.676,45.2356 484.342,41.9023 484.5,38.5C 486.355,26.141 493.355,18.3076 505.5,15C 518.021,12.8006 529.354,15.3006 539.5,22.5 Z"/></g>
<g><path style="opacity:1" fill="#ff0502" d="M 52.5,19.5 C 53.0791,33.1785 53.9125,46.8452 55,60.5C 56.5918,56.9789 58.4251,53.6456 60.5,50.5C 65.7556,38.8218 71.4223,27.3218 77.5,16C 87.1609,15.5002 96.8276,15.3335 106.5,15.5C 106.5,16.5 106.5,17.5 106.5,18.5C 100.343,44.9428 94.6767,71.6095 89.5,98.5C 84.1667,98.5 78.8333,98.5 73.5,98.5C 71.5,98.5 69.5,98.5 67.5,98.5C 69.1236,88.8152 70.6236,79.1485 72,69.5C 67.2944,79.078 62.4611,88.578 57.5,98C 52.5111,98.4993 47.5111,98.6659 42.5,98.5C 40.2646,98.7947 38.2646,98.4614 36.5,97.5C 36.4985,88.1421 35.9985,78.8087 35,69.5C 32.9689,79.1541 31.1356,88.8208 29.5,98.5C 24.1667,98.5 18.8333,98.5 13.5,98.5C 11.1667,98.5 8.83333,98.5 6.5,98.5C 12.2948,70.8593 17.9615,43.1927 23.5,15.5C 33.1667,15.5 42.8333,15.5 52.5,15.5C 52.5,16.8333 52.5,18.1667 52.5,19.5 Z"/></g>
<g><path style="opacity:1" fill="#ff0703" d="M 140.5,17.5 C 139.549,18.9187 139.216,20.5853 139.5,22.5C 133.739,47.7309 128.405,73.0642 123.5,98.5C 117.5,98.5 111.5,98.5 105.5,98.5C 103.5,98.5 101.5,98.5 99.5,98.5C 104.782,70.7561 110.449,43.0894 116.5,15.5C 124.903,14.8665 132.903,15.5332 140.5,17.5 Z"/></g>
<g><path style="opacity:1" fill="#ff0703" d="M 285.5,19.5 C 279.635,45.7684 273.969,72.1017 268.5,98.5C 262.833,98.5 257.167,98.5 251.5,98.5C 248.612,99.0102 246.279,98.3435 244.5,96.5C 245.451,95.0813 245.784,93.4147 245.5,91.5C 246.898,84.8644 248.565,78.1978 250.5,71.5C 252.704,59.1441 255.038,46.8108 257.5,34.5C 258.458,32.6976 259.125,30.6976 259.5,28.5C 260.167,24.1667 260.833,19.8333 261.5,15.5C 269.5,15.5 277.5,15.5 285.5,15.5C 285.5,16.8333 285.5,18.1667 285.5,19.5 Z"/></g>
<g><path style="opacity:1" fill="#ff0402" d="M 395.5,22.5 C 397.412,24.6572 399.079,26.9906 400.5,29.5C 404.734,44.9807 400.068,56.814 386.5,65C 391.02,75.8763 395.687,86.7097 400.5,97.5C 393.532,98.497 386.532,98.8303 379.5,98.5C 379.167,98.5 378.833,98.5 378.5,98.5C 377.022,98.762 375.689,98.4287 374.5,97.5C 372.826,92.8098 371.159,88.1432 369.5,83.5C 367.763,79.1209 365.93,74.7875 364,70.5C 361.841,79.7881 360.008,89.1215 358.5,98.5C 352.5,98.5 346.5,98.5 340.5,98.5C 338.5,98.5 336.5,98.5 334.5,98.5C 334.5,97.5 334.5,96.5 334.5,95.5C 335.975,88.237 337.642,80.9036 339.5,73.5C 342.167,59.8333 344.833,46.1667 347.5,32.5C 348.285,30.6264 348.952,28.6264 349.5,26.5C 349.952,23.124 350.618,19.7906 351.5,16.5C 361.817,15.3344 372.151,15.1677 382.5,16C 387.418,17.1258 391.752,19.2925 395.5,22.5 Z"/></g>
<g><path style="opacity:1" fill="#ff0502" d="M 598.5,18.5 C 597.072,24.0221 595.738,29.6888 594.5,35.5C 585.525,36.4982 576.525,36.8315 567.5,36.5C 567.167,39.1667 566.833,41.8333 566.5,44.5C 568.833,44.5 571.167,44.5 573.5,44.5C 579.167,44.5 584.833,44.5 590.5,44.5C 590.5,45.5 590.5,46.5 590.5,47.5C 589.217,53.0521 587.883,58.7188 586.5,64.5C 578.193,65.4979 569.86,65.8312 561.5,65.5C 561.042,69.5384 560.376,73.5384 559.5,77.5C 561.833,77.5 564.167,77.5 566.5,77.5C 573.255,76.8771 579.588,77.5437 585.5,79.5C 583.725,85.6188 582.392,91.9521 581.5,98.5C 566.833,98.5 552.167,98.5 537.5,98.5C 535.5,98.5 533.5,98.5 531.5,98.5C 531.5,97.1667 531.5,95.8333 531.5,94.5C 532.434,93.4324 532.768,92.099 532.5,90.5C 533.56,84.8864 534.893,79.2197 536.5,73.5C 539.167,59.8333 541.833,46.1667 544.5,32.5C 545.285,30.6264 545.952,28.6264 546.5,26.5C 546.952,23.124 547.618,19.7906 548.5,16.5C 565.153,15.5005 581.82,15.1672 598.5,15.5C 598.5,16.5 598.5,17.5 598.5,18.5 Z"/></g>
<g><path style="opacity:1" fill="#ffa8a7" d="M 140.5,17.5 C 141.918,19.3079 143.918,19.9746 146.5,19.5C 146.216,21.4147 146.549,23.0813 147.5,24.5C 147.167,25.1667 146.833,25.8333 146.5,26.5C 145.566,25.4324 145.232,24.099 145.5,22.5C 143.5,22.5 141.5,22.5 139.5,22.5C 139.216,20.5853 139.549,18.9187 140.5,17.5 Z"/></g>
<g><path style="opacity:1" fill="#ff807f" d="M 52.5,19.5 C 54.5,19.5 56.5,19.5 58.5,19.5C 58.3336,27.5069 58.5003,35.5069 59,43.5C 59.1862,46.0356 59.6862,48.369 60.5,50.5C 58.4251,53.6456 56.5918,56.9789 55,60.5C 53.9125,46.8452 53.0791,33.1785 52.5,19.5 Z"/></g>
<g><path style="opacity:1" fill="#ff7e7d" d="M 106.5,18.5 C 108.265,19.4614 110.265,19.7947 112.5,19.5C 106.993,47.1953 101.326,74.862 95.5,102.5C 88.1667,102.5 80.8333,102.5 73.5,102.5C 73.5,101.5 73.5,100.5 73.5,99.5C 73.5,99.1667 73.5,98.8333 73.5,98.5C 78.8333,98.5 84.1667,98.5 89.5,98.5C 94.6767,71.6095 100.343,44.9428 106.5,18.5 Z"/></g>
<g><path style="opacity:1" fill="#ff7b7a" d="M 139.5,22.5 C 141.5,22.5 143.5,22.5 145.5,22.5C 145.232,24.099 145.566,25.4324 146.5,26.5C 142.84,32.2179 141.506,38.5513 142.5,45.5C 139.721,53.606 137.387,61.9393 135.5,70.5C 133.564,74.7147 132.897,79.3814 133.5,84.5C 132.778,84.9175 132.278,85.5842 132,86.5C 131.229,91.8546 130.395,97.188 129.5,102.5C 121.5,102.5 113.5,102.5 105.5,102.5C 105.5,101.167 105.5,99.8333 105.5,98.5C 111.5,98.5 117.5,98.5 123.5,98.5C 128.405,73.0642 133.739,47.7309 139.5,22.5 Z"/></g>
<g><path style="opacity:1" fill="#ff7d7d" d="M 285.5,19.5 C 287.5,19.5 289.5,19.5 291.5,19.5C 291.205,21.7354 291.539,23.7354 292.5,25.5C 288.623,30.468 286.957,36.1346 287.5,42.5C 285.01,51.9456 283.01,61.6123 281.5,71.5C 280.85,71.1961 280.183,70.8627 279.5,70.5C 278.506,75.456 278.173,80.456 278.5,85.5C 276.723,90.946 275.39,96.6126 274.5,102.5C 266.5,102.5 258.5,102.5 250.5,102.5C 250.833,101.167 251.167,99.8333 251.5,98.5C 257.167,98.5 262.833,98.5 268.5,98.5C 273.969,72.1017 279.635,45.7684 285.5,19.5 Z"/></g>
<g><path style="opacity:1" fill="#ff7d7c" d="M 598.5,18.5 C 598.5,19.1667 598.833,19.5 599.5,19.5C 599.5,26.5 599.5,33.5 599.5,40.5C 590.833,40.5 582.167,40.5 573.5,40.5C 573.5,41.5 573.5,42.5 573.5,43.5C 573.5,43.8333 573.5,44.1667 573.5,44.5C 571.167,44.5 568.833,44.5 566.5,44.5C 566.833,41.8333 567.167,39.1667 567.5,36.5C 576.525,36.8315 585.525,36.4982 594.5,35.5C 595.738,29.6888 597.072,24.0221 598.5,18.5 Z"/></g>
<g><path style="opacity:1" fill="#ffadad" d="M 342.5,22.5 C 344.996,23.5804 347.33,24.9138 349.5,26.5C 348.952,28.6264 348.285,30.6264 347.5,32.5C 347.5,31.8333 347.167,31.5 346.5,31.5C 346.33,30.1779 346.663,29.0113 347.5,28C 345.593,26.878 343.593,26.0447 341.5,25.5C 341.557,24.391 341.89,23.391 342.5,22.5 Z"/></g>
<g><path style="opacity:1" fill="#ff7f7e" d="M 196.5,21.5 C 198.461,23.3122 200.794,24.3122 203.5,24.5C 198.996,30.329 197.329,36.9957 198.5,44.5C 197.732,43.7375 197.232,42.7375 197,41.5C 196.722,42.4158 196.222,43.0825 195.5,43.5C 194.883,43.6107 194.383,43.944 194,44.5C 187.937,41.0257 181.437,39.5257 174.5,40C 172.963,41.1096 172.297,42.6096 172.5,44.5C 172.5,45.5 172.5,46.5 172.5,47.5C 170.852,46.1902 169.186,44.8569 167.5,43.5C 165.96,40.709 166.294,38.209 168.5,36C 175.437,35.5257 181.937,37.0257 188,40.5C 191.932,34.6375 194.765,28.3041 196.5,21.5 Z"/></g>
<g><path style="opacity:1" fill="#ff7b7a" d="M 252.5,23.5 C 254.118,25.3248 255.785,27.1581 257.5,29C 255.224,34.3862 252.557,39.5529 249.5,44.5C 243.301,40.4241 236.634,39.0907 229.5,40.5C 227.914,42.1727 227.247,44.1727 227.5,46.5C 222.173,44.5382 220.839,41.2048 223.5,36.5C 230.634,35.0907 237.301,36.4241 243.5,40.5C 246.767,34.9647 249.767,29.2981 252.5,23.5 Z"/></g>
<g><path style="opacity:1" fill="#ff7b7a" d="M 341.5,25.5 C 343.593,26.0447 345.593,26.878 347.5,28C 346.663,29.0113 346.33,30.1779 346.5,31.5C 344.274,34.9446 342.274,38.6112 340.5,42.5C 339.833,42.8333 339.167,43.1667 338.5,43.5C 332.512,40.3342 326.179,39.1675 319.5,40C 317.963,41.1096 317.297,42.6096 317.5,44.5C 317.5,45.1667 317.5,45.8333 317.5,46.5C 312.943,45.1186 311.109,42.1186 312,37.5C 319.411,35.1363 326.578,36.1363 333.5,40.5C 336.178,35.4302 338.845,30.4302 341.5,25.5 Z"/></g>
<g><path style="opacity:1" fill="#ffa4a4" d="M 395.5,22.5 C 400.955,25.2907 404.622,29.624 406.5,35.5C 404.861,33.1939 402.861,31.1939 400.5,29.5C 399.079,26.9906 397.412,24.6572 395.5,22.5 Z"/></g>
<g><path style="opacity:1" fill="#ffadac" d="M 471.5,24.5 C 477.228,27.9151 481.062,32.9151 483,39.5C 483.383,38.944 483.883,38.6107 484.5,38.5C 484.342,41.9023 484.676,45.2356 485.5,48.5C 484.833,51.5 484.167,54.5 483.5,57.5C 485.562,46.9158 482.895,37.9158 475.5,30.5C 474.167,28.5 472.833,26.5 471.5,24.5 Z"/></g>
<g><path style="opacity:1" fill="#ff7b7b" d="M 538.5,25.5 C 540.903,25.695 542.57,26.8616 543.5,29C 542.391,31.0466 541.724,33.2133 541.5,35.5C 539.692,38.4362 537.859,41.4362 536,44.5C 529.999,40.7446 523.499,39.2446 516.5,40C 514.963,41.1096 514.297,42.6096 514.5,44.5C 514.5,45.1667 514.5,45.8333 514.5,46.5C 508.505,44.6336 507.172,41.1336 510.5,36C 517.567,35.5995 524.234,37.0995 530.5,40.5C 532.937,35.2886 535.603,30.2886 538.5,25.5 Z"/></g>
<g><path style="opacity:1" fill="#ffbcbb" d="M 539.5,22.5 C 541.996,23.5804 544.33,24.9138 546.5,26.5C 545.952,28.6264 545.285,30.6264 544.5,32.5C 544.565,32.0618 544.399,31.7284 544,31.5C 543.392,33.0664 542.558,34.3998 541.5,35.5C 541.724,33.2133 542.391,31.0466 543.5,29C 542.57,26.8616 540.903,25.695 538.5,25.5C 538.557,24.391 538.89,23.391 539.5,22.5 Z"/></g>
<g><path style="opacity:1" fill="#ff7e7e" d="M 400.5,29.5 C 402.861,31.1939 404.861,33.1939 406.5,35.5C 406.796,37.403 407.463,39.0697 408.5,40.5C 406.123,44.4608 404.623,48.7941 404,53.5C 403.5,59.8246 403.334,66.1579 403.5,72.5C 402.527,70.0521 402.194,67.3854 402.5,64.5C 402.649,63.448 402.483,62.448 402,61.5C 399.106,64.3614 395.939,66.8614 392.5,69C 393.056,69.3826 393.389,69.8826 393.5,70.5C 397.167,79.8333 400.833,89.1667 404.5,98.5C 404.5,99.8333 404.5,101.167 404.5,102.5C 396.5,102.5 388.5,102.5 380.5,102.5C 380.567,101.041 380.234,99.7079 379.5,98.5C 386.532,98.8303 393.532,98.497 400.5,97.5C 395.687,86.7097 391.02,75.8763 386.5,65C 400.068,56.814 404.734,44.9807 400.5,29.5 Z"/></g>
<g><path style="opacity:1" fill="#fffafa" d="M 544.5,32.5 C 541.833,46.1667 539.167,59.8333 536.5,73.5C 535.463,72.0697 534.796,70.403 534.5,68.5C 532.687,61.6936 528.687,56.6936 522.5,53.5C 519.808,51.1377 517.141,48.8044 514.5,46.5C 514.5,45.8333 514.5,45.1667 514.5,44.5C 516.503,42.9854 518.837,42.3187 521.5,42.5C 526.185,43.5069 530.851,44.8403 535.5,46.5C 538.782,43.6081 540.782,39.9414 541.5,35.5C 542.558,34.3998 543.392,33.0664 544,31.5C 544.399,31.7284 544.565,32.0618 544.5,32.5 Z"/></g>
<g><path style="opacity:1" fill="#fffbfb" d="M 257.5,34.5 C 255.038,46.8108 252.704,59.1441 250.5,71.5C 249.508,71.6716 248.842,71.3382 248.5,70.5C 247.847,65.9971 246.013,61.9971 243,58.5C 240.894,55.8823 238.394,53.8823 235.5,52.5C 232.991,51.0787 230.657,49.4121 228.5,47.5C 228.427,43.5193 230.427,41.8526 234.5,42.5C 239.826,43.1643 244.826,44.831 249.5,47.5C 252.13,42.4547 254.797,38.1214 257.5,34.5 Z"/></g>
<g><path style="opacity:1" fill="#fffafa" d="M 346.5,31.5 C 347.167,31.5 347.5,31.8333 347.5,32.5C 344.833,46.1667 342.167,59.8333 339.5,73.5C 338.715,71.6264 338.048,69.6264 337.5,67.5C 335.284,61.2852 331.284,56.6185 325.5,53.5C 322.833,51.1667 320.167,48.8333 317.5,46.5C 317.5,45.8333 317.5,45.1667 317.5,44.5C 319.503,42.9854 321.837,42.3187 324.5,42.5C 329.317,43.2155 333.983,44.5489 338.5,46.5C 342.452,42.2676 345.118,37.2676 346.5,31.5 Z"/></g>
<g><path style="opacity:1" fill="#ff7a79" d="M 452.5,39.5 C 447.404,39.4 443.237,41.4 440,45.5C 437.053,49.3896 435.22,53.7229 434.5,58.5C 432.506,64.7654 432.173,71.0987 433.5,77.5C 431.83,77.2488 430.33,76.5822 429,75.5C 425.448,63.4735 427.114,52.1401 434,41.5C 438.017,36.4073 443.184,34.5739 449.5,36C 450.71,37.0391 451.71,38.2058 452.5,39.5 Z"/></g>
<g><path style="opacity:1" fill="#ff7b7a" d="M 370.5,36.5 C 376.735,36.2273 378.902,39.2273 377,45.5C 374.508,47.4971 371.675,48.4971 368.5,48.5C 369.295,44.5236 369.962,40.5236 370.5,36.5 Z"/></g>
<g><path style="opacity:1" fill="#ffc3c3" d="M 195.5,43.5 C 195.688,45.1033 195.188,46.4366 194,47.5C 187.953,43.9262 181.453,42.4262 174.5,43C 173.956,43.7172 173.289,44.2172 172.5,44.5C 172.297,42.6096 172.963,41.1096 174.5,40C 181.437,39.5257 187.937,41.0257 194,44.5C 194.383,43.944 194.883,43.6107 195.5,43.5 Z"/></g>
<g><path style="opacity:1" fill="#ffbebe" d="M 252.5,21.5 C 256.065,22.7494 258.399,25.0827 259.5,28.5C 259.125,30.6976 258.458,32.6976 257.5,34.5C 254.797,38.1214 252.13,42.4547 249.5,47.5C 244.826,44.831 239.826,43.1643 234.5,42.5C 230.427,41.8526 228.427,43.5193 228.5,47.5C 227.833,47.5 227.5,47.1667 227.5,46.5C 227.247,44.1727 227.914,42.1727 229.5,40.5C 236.634,39.0907 243.301,40.4241 249.5,44.5C 252.557,39.5529 255.224,34.3862 257.5,29C 255.785,27.1581 254.118,25.3248 252.5,23.5C 252.5,22.8333 252.5,22.1667 252.5,21.5 Z"/></g>
<g><path style="opacity:1" fill="#ffbebe" d="M 346.5,31.5 C 345.118,37.2676 342.452,42.2676 338.5,46.5C 333.983,44.5489 329.317,43.2155 324.5,42.5C 321.837,42.3187 319.503,42.9854 317.5,44.5C 317.297,42.6096 317.963,41.1096 319.5,40C 326.179,39.1675 332.512,40.3342 338.5,43.5C 339.167,43.1667 339.833,42.8333 340.5,42.5C 342.274,38.6112 344.274,34.9446 346.5,31.5 Z"/></g>
<g><path style="opacity:1" fill="#ffbfbe" d="M 452.5,39.5 C 453.11,40.391 453.443,41.391 453.5,42.5C 449.781,42.0025 446.447,42.8358 443.5,45C 439.429,48.8823 436.429,53.3823 434.5,58.5C 435.22,53.7229 437.053,49.3896 440,45.5C 443.237,41.4 447.404,39.4 452.5,39.5 Z"/></g>
<g><path style="opacity:1" fill="#ffc0c0" d="M 541.5,35.5 C 540.782,39.9414 538.782,43.6081 535.5,46.5C 530.851,44.8403 526.185,43.5069 521.5,42.5C 518.837,42.3187 516.503,42.9854 514.5,44.5C 514.297,42.6096 514.963,41.1096 516.5,40C 523.499,39.2446 529.999,40.7446 536,44.5C 537.859,41.4362 539.692,38.4362 541.5,35.5 Z"/></g>
<g><path style="opacity:1" fill="#ffc5c5" d="M 599.5,40.5 C 599.5,41.5 599.5,42.5 599.5,43.5C 590.833,43.5 582.167,43.5 573.5,43.5C 573.5,42.5 573.5,41.5 573.5,40.5C 582.167,40.5 590.833,40.5 599.5,40.5 Z"/></g>
<g><path style="opacity:1" fill="#fffbfb" d="M 198.5,44.5 C 199.572,53.2471 203.905,59.9138 211.5,64.5C 212.833,67.8333 215.167,70.1667 218.5,71.5C 219.788,73.0348 219.788,74.7015 218.5,76.5C 209.532,79.5127 201.199,78.1794 193.5,72.5C 191.776,63.7001 187.109,57.0334 179.5,52.5C 177.343,50.5879 175.009,48.9213 172.5,47.5C 172.5,46.5 172.5,45.5 172.5,44.5C 173.289,44.2172 173.956,43.7172 174.5,43C 181.453,42.4262 187.953,43.9262 194,47.5C 195.188,46.4366 195.688,45.1033 195.5,43.5C 196.222,43.0825 196.722,42.4158 197,41.5C 197.232,42.7375 197.732,43.7375 198.5,44.5 Z"/></g>
<g><path style="opacity:1" fill="#fff9f9" d="M 453.5,42.5 C 455.324,54.5469 452.324,65.3802 444.5,75C 442.5,76 440.5,77 438.5,78C 436.613,78.7796 434.946,78.6129 433.5,77.5C 432.173,71.0987 432.506,64.7654 434.5,58.5C 436.429,53.3823 439.429,48.8823 443.5,45C 446.447,42.8358 449.781,42.0025 453.5,42.5 Z"/></g>
<g><path style="opacity:1" fill="#fff8f8" d="M 142.5,45.5 C 144.09,53.6709 148.423,60.0042 155.5,64.5C 157.145,68.145 159.812,70.8116 163.5,72.5C 163.714,74.1439 163.38,75.6439 162.5,77C 152.395,79.4656 143.395,77.299 135.5,70.5C 137.387,61.9393 139.721,53.606 142.5,45.5 Z"/></g>
<g><path style="opacity:1" fill="#fff6f5" d="M 287.5,42.5 C 287.848,46.7408 289.015,50.7408 291,54.5C 296.645,60.4768 302.645,66.1434 309,71.5C 309.825,73.7008 309.325,75.5341 307.5,77C 297.987,79.4461 289.32,77.6127 281.5,71.5C 283.01,61.6123 285.01,51.9456 287.5,42.5 Z"/></g>
<g><path style="opacity:1" fill="#fff5f5" d="M 485.5,48.5 C 486.462,51.7568 487.962,54.7568 490,57.5C 495,61.8333 500,66.1667 505,70.5C 507.379,74.029 506.546,76.529 502.5,78C 494.938,79.0895 487.938,77.5895 481.5,73.5C 482.167,68.1667 482.833,62.8333 483.5,57.5C 484.167,54.5 484.833,51.5 485.5,48.5 Z"/></g>
<g><path style="opacity:1" fill="#ff7c7b" d="M 590.5,47.5 C 592.265,48.4614 594.265,48.7947 596.5,48.5C 595.423,55.5519 594.09,62.5519 592.5,69.5C 584.14,69.1688 575.807,69.5021 567.5,70.5C 566.754,71.7362 566.421,73.0695 566.5,74.5C 566.5,75.5 566.5,76.5 566.5,77.5C 564.167,77.5 561.833,77.5 559.5,77.5C 560.376,73.5384 561.042,69.5384 561.5,65.5C 569.86,65.8312 578.193,65.4979 586.5,64.5C 587.883,58.7188 589.217,53.0521 590.5,47.5 Z"/></g>
<g><path style="opacity:1" fill="#ffa4a3" d="M 522.5,53.5 C 528.687,56.6936 532.687,61.6936 534.5,68.5C 532.62,65.3864 530.287,62.7198 527.5,60.5C 526.079,57.9906 524.412,55.6572 522.5,53.5 Z"/></g>
<g><path style="opacity:1" fill="#ffa2a1" d="M 325.5,53.5 C 331.284,56.6185 335.284,61.2852 337.5,67.5C 335.379,64.8969 333.046,62.5636 330.5,60.5C 329.221,57.8883 327.555,55.5549 325.5,53.5 Z"/></g>
<g><path style="opacity:1" fill="#ff7c7b" d="M 240.5,59.5 C 241.376,59.3691 242.043,59.7025 242.5,60.5C 244.992,63.6314 246.992,66.9647 248.5,70.5C 248.842,71.3382 249.508,71.6716 250.5,71.5C 248.565,78.1978 246.898,84.8644 245.5,91.5C 239.751,98.2092 232.418,102.043 223.5,103C 214.449,104.689 206.115,103.189 198.5,98.5C 207.939,100.104 217.273,99.6041 226.5,97C 242.511,88.8043 247.178,76.3043 240.5,59.5 Z"/></g>
<g><path style="opacity:1" fill="#ff7c7c" d="M 330.5,60.5 C 333.046,62.5636 335.379,64.8969 337.5,67.5C 338.048,69.6264 338.715,71.6264 339.5,73.5C 337.642,80.9036 335.975,88.237 334.5,95.5C 334.649,94.448 334.483,93.448 334,92.5C 325.887,100.595 316.053,104.262 304.5,103.5C 297.66,103.633 291.66,101.633 286.5,97.5C 292.706,99.3492 299.039,99.8492 305.5,99C 328.858,95.7639 337.192,82.9305 330.5,60.5 Z"/></g>
<g><path style="opacity:1" fill="#ff7b7a" d="M 527.5,60.5 C 530.287,62.7198 532.62,65.3864 534.5,68.5C 534.796,70.403 535.463,72.0697 536.5,73.5C 534.893,79.2197 533.56,84.8864 532.5,90.5C 522.693,101.492 510.36,105.659 495.5,103C 490.482,101.988 485.815,100.155 481.5,97.5C 481.5,97.1667 481.5,96.8333 481.5,96.5C 488.235,99.2376 495.235,100.071 502.5,99C 525.294,95.5813 533.628,82.748 527.5,60.5 Z"/></g>
<g><path style="opacity:1" fill="#ffa9a8" d="M 235.5,52.5 C 238.394,53.8823 240.894,55.8823 243,58.5C 246.013,61.9971 247.847,65.9971 248.5,70.5C 246.992,66.9647 244.992,63.6314 242.5,60.5C 242.043,59.7025 241.376,59.3691 240.5,59.5C 239.079,56.9906 237.412,54.6572 235.5,52.5 Z"/></g>
<g><path style="opacity:1" fill="#ffa9a8" d="M 179.5,52.5 C 187.109,57.0334 191.776,63.7001 193.5,72.5C 192.833,72.5 192.5,72.1667 192.5,71.5C 191.605,67.0049 189.272,63.6716 185.5,61.5C 184.244,57.9837 182.244,54.9837 179.5,52.5 Z"/></g>
<g><path style="opacity:1" fill="#ffc3c3" d="M 402.5,64.5 C 399.987,67.2546 396.987,69.2546 393.5,70.5C 393.389,69.8826 393.056,69.3826 392.5,69C 395.939,66.8614 399.106,64.3614 402,61.5C 402.483,62.448 402.649,63.448 402.5,64.5 Z"/></g>
<g><path style="opacity:1" fill="#ffbbba" d="M 155.5,64.5 C 159.104,66.288 161.77,68.9547 163.5,72.5C 159.812,70.8116 157.145,68.145 155.5,64.5 Z"/></g>
<g><path style="opacity:1" fill="#ffbaba" d="M 211.5,64.5 C 214.242,66.5754 216.576,68.9087 218.5,71.5C 215.167,70.1667 212.833,67.8333 211.5,64.5 Z"/></g>
<g><path style="opacity:1" fill="#ff7c7c" d="M 475.5,30.5 C 482.895,37.9158 485.562,46.9158 483.5,57.5C 482.833,62.8333 482.167,68.1667 481.5,73.5C 480.027,72.2599 478.36,71.2599 476.5,70.5C 475.507,75.1196 475.173,79.7863 475.5,84.5C 465.09,99.3628 450.757,105.53 432.5,103C 428.213,102.19 424.546,100.357 421.5,97.5C 438.764,102.476 453.597,98.4759 466,85.5C 477.597,68.5825 480.764,50.2491 475.5,30.5 Z"/></g>
<g><path style="opacity:1" fill="#ffbaba" d="M 592.5,69.5 C 592.5,70.5 592.5,71.5 592.5,72.5C 583.566,71.9085 574.899,72.5751 566.5,74.5C 566.421,73.0695 566.754,71.7362 567.5,70.5C 575.807,69.5021 584.14,69.1688 592.5,69.5 Z"/></g>
<g><path style="opacity:1" fill="#ff7c7c" d="M 369.5,83.5 C 368.351,83.7911 367.684,84.6244 367.5,86C 366.304,91.4766 365.304,96.9766 364.5,102.5C 356.5,102.5 348.5,102.5 340.5,102.5C 340.5,101.167 340.5,99.8333 340.5,98.5C 346.5,98.5 352.5,98.5 358.5,98.5C 360.008,89.1215 361.841,79.7881 364,70.5C 365.93,74.7875 367.763,79.1209 369.5,83.5 Z"/></g>
<g><path style="opacity:1" fill="#ff7979" d="M 67.5,98.5 C 67.1667,98.5 66.8333,98.5 66.5,98.5C 66.19,97.2617 65.69,97.2617 65,98.5C 64.6905,99.7659 64.1905,100.933 63.5,102C 56.5079,102.5 49.5079,102.666 42.5,102.5C 42.5,101.167 42.5,99.8333 42.5,98.5C 47.5111,98.6659 52.5111,98.4993 57.5,98C 62.4611,88.578 67.2944,79.078 72,69.5C 70.6236,79.1485 69.1236,88.8152 67.5,98.5 Z"/></g>
<g><path style="opacity:1" fill="#ff7979" d="M 36.5,97.5 C 35.5489,98.9187 35.2155,100.585 35.5,102.5C 27.8333,102.5 20.1667,102.5 12.5,102.5C 12.8333,101.167 13.1667,99.8333 13.5,98.5C 18.8333,98.5 24.1667,98.5 29.5,98.5C 31.1356,88.8208 32.9689,79.1541 35,69.5C 35.9985,78.8087 36.4985,88.1421 36.5,97.5 Z"/></g>
<g><path style="opacity:1" fill="#ff7b7a" d="M 185.5,61.5 C 189.272,63.6716 191.605,67.0049 192.5,71.5C 191.417,71.4606 190.417,71.1272 189.5,70.5C 188.503,77.8032 188.169,85.1365 188.5,92.5C 178.837,101.914 167.17,105.414 153.5,103C 148.482,101.988 143.815,100.155 139.5,97.5C 139.5,97.1667 139.5,96.8333 139.5,96.5C 146.57,99.2687 153.904,100.102 161.5,99C 183.158,95.1847 191.158,82.6847 185.5,61.5 Z"/></g>
<g><path style="opacity:1" fill="#ff7f7f" d="M 585.5,79.5 C 586.918,81.3079 588.918,81.9746 591.5,81.5C 590.169,88.4897 588.835,95.4897 587.5,102.5C 570.833,102.5 554.167,102.5 537.5,102.5C 537.5,101.167 537.5,99.8333 537.5,98.5C 552.167,98.5 566.833,98.5 581.5,98.5C 582.392,91.9521 583.725,85.6188 585.5,79.5 Z"/></g>
<g><path style="opacity:1" fill="#ffc2c2" d="M 188.5,92.5 C 189.5,92.8333 190.167,93.5 190.5,94.5C 188.066,96.7491 185.399,98.9157 182.5,101C 168.474,108.115 154.474,108.115 140.5,101C 139.663,99.9887 139.33,98.8221 139.5,97.5C 143.815,100.155 148.482,101.988 153.5,103C 167.17,105.414 178.837,101.914 188.5,92.5 Z"/></g>
<g><path style="opacity:1" fill="#ffbfbf" d="M 245.5,91.5 C 245.784,93.4147 245.451,95.0813 244.5,96.5C 244.565,96.0618 244.399,95.7284 244,95.5C 241.408,98.7621 238.241,101.262 234.5,103C 221.508,107.957 208.841,107.291 196.5,101C 195.663,99.9887 195.33,98.8221 195.5,97.5C 196.791,97.2627 197.791,97.596 198.5,98.5C 206.115,103.189 214.449,104.689 223.5,103C 232.418,102.043 239.751,98.2092 245.5,91.5 Z"/></g>
<g><path style="opacity:1" fill="#ffc3c3" d="M 475.5,84.5 C 475.5,85.5 475.5,86.5 475.5,87.5C 465.09,102.363 450.757,108.53 432.5,106C 424.639,104.275 418.639,100.108 414.5,93.5C 416.67,95.0862 419.004,96.4196 421.5,97.5C 424.546,100.357 428.213,102.19 432.5,103C 450.757,105.53 465.09,99.3628 475.5,84.5 Z"/></g>
<g><path style="opacity:1" fill="#ffc2c2" d="M 532.5,90.5 C 532.768,92.099 532.434,93.4324 531.5,94.5C 530.404,96.1032 529.07,97.6032 527.5,99C 512.879,107.996 497.879,108.663 482.5,101C 481.663,99.9887 481.33,98.8221 481.5,97.5C 485.815,100.155 490.482,101.988 495.5,103C 510.36,105.659 522.693,101.492 532.5,90.5 Z"/></g>
<g><path style="opacity:1" fill="#ffc3c3" d="M 334.5,95.5 C 334.5,96.5 334.5,97.5 334.5,98.5C 333.778,98.0825 333.278,97.4158 333,96.5C 330.617,99.2728 327.783,101.439 324.5,103C 313.586,107.02 302.586,107.354 291.5,104C 287.947,102.942 285.614,100.775 284.5,97.5C 285.167,97.5 285.833,97.5 286.5,97.5C 291.66,101.633 297.66,103.633 304.5,103.5C 316.053,104.262 325.887,100.595 334,92.5C 334.483,93.448 334.649,94.448 334.5,95.5 Z"/></g>
<g><path style="opacity:1" fill="#ffc3c3" d="M 12.5,102.5 C 20.1667,102.5 27.8333,102.5 35.5,102.5C 35.5,103.5 35.5,104.5 35.5,105.5C 27.8333,105.5 20.1667,105.5 12.5,105.5C 12.5,104.5 12.5,103.5 12.5,102.5 Z"/></g>
<g><path style="opacity:1" fill="#ffc2c2" d="M 66.5,98.5 C 65.914,100.84 64.914,103.007 63.5,105C 56.5079,105.5 49.5079,105.666 42.5,105.5C 42.5,104.5 42.5,103.5 42.5,102.5C 49.5079,102.666 56.5079,102.5 63.5,102C 64.1905,100.933 64.6905,99.7659 65,98.5C 65.69,97.2617 66.19,97.2617 66.5,98.5 Z"/></g>
<g><path style="opacity:1" fill="#ffc4c4" d="M 73.5,99.5 C 73.5,100.5 73.5,101.5 73.5,102.5C 80.8333,102.5 88.1667,102.5 95.5,102.5C 95.5,103.5 95.5,104.5 95.5,105.5C 87.8333,105.5 80.1667,105.5 72.5,105.5C 72.2053,103.265 72.5386,101.265 73.5,99.5 Z"/></g>
<g><path style="opacity:1" fill="#ffc2c2" d="M 105.5,102.5 C 113.5,102.5 121.5,102.5 129.5,102.5C 129.5,103.5 129.5,104.5 129.5,105.5C 121.5,105.5 113.5,105.5 105.5,105.5C 105.5,104.5 105.5,103.5 105.5,102.5 Z"/></g>
<g><path style="opacity:1" fill="#ffc2c2" d="M 250.5,102.5 C 258.5,102.5 266.5,102.5 274.5,102.5C 274.5,103.5 274.5,104.5 274.5,105.5C 266.5,105.5 258.5,105.5 250.5,105.5C 250.5,104.5 250.5,103.5 250.5,102.5 Z"/></g>
<g><path style="opacity:1" fill="#ffc2c2" d="M 340.5,102.5 C 348.5,102.5 356.5,102.5 364.5,102.5C 364.5,103.5 364.5,104.5 364.5,105.5C 356.5,105.5 348.5,105.5 340.5,105.5C 340.5,104.5 340.5,103.5 340.5,102.5 Z"/></g>
<g><path style="opacity:1" fill="#ffc0c0" d="M 378.5,98.5 C 378.833,98.5 379.167,98.5 379.5,98.5C 380.234,99.7079 380.567,101.041 380.5,102.5C 388.5,102.5 396.5,102.5 404.5,102.5C 404.5,101.167 404.5,99.8333 404.5,98.5C 406.399,100.253 407.065,102.253 406.5,104.5C 397.833,105.833 389.167,105.833 380.5,104.5C 379.628,102.55 378.961,100.55 378.5,98.5 Z"/></g>
<g><path style="opacity:1" fill="#ffc2c2" d="M 537.5,102.5 C 554.167,102.5 570.833,102.5 587.5,102.5C 587.5,103.5 587.5,104.5 587.5,105.5C 570.833,105.5 554.167,105.5 537.5,105.5C 537.5,104.5 537.5,103.5 537.5,102.5 Z"/></g>
</svg>
